# Blender 4.1.0
# www.blender.org
mtllib bunnyBox.mtl
o Cube.001
v 2.370593 -1.528860 11.604903
v 12.956871 -1.528860 -10.125564
v 12.956871 -1.528860 -10.125564
v 10.371154 -1.528860 -14.898634
v 9.319626 -1.528860 -14.799099
v -7.078368 -1.528860 5.034704
v -5.074840 -1.528860 7.046149
v -2.562841 -1.528860 8.436287
v 0.827139 -1.528860 8.363124
v 0.931676 -1.528860 10.527456
v 4.461002 -1.528860 10.923897
v 5.363371 -1.528860 10.314189
v 5.753584 -1.528860 8.411898
v 4.778049 -1.528860 6.972984
v 7.290049 -1.528860 4.778032
v 8.314363 -1.528860 2.778189
v 8.363139 -1.528860 0.241802
v 8.168032 -1.528860 -0.636180
v 8.643146 -1.528860 -1.186561
v 12.505389 -1.528860 -12.807947
v 8.216810 -1.528860 -14.391209
v 5.826712 -1.528860 -11.931937
v 3.826871 -1.528860 -4.176441
v 1.753897 -1.528860 -4.318820
v -2.026296 -1.528860 -3.465226
v -5.196783 -1.528860 -1.270276
v -8.523794 -1.528860 -2.876903
v -12.274985 -1.528860 -5.454995
v -15.122840 -1.528860 -5.952841
v -16.634914 -1.528860 -5.343132
v -17.854334 -1.528860 -3.392065
v -17.610451 -1.528860 -1.270279
v -16.541044 -1.528860 1.010621
v 12.956871 7.764636 -10.125564
v 12.956871 7.764636 -10.125564
v 10.371154 7.764636 -14.898634
v 9.319626 7.764636 -14.799099
v -7.078368 7.764636 5.034704
v -5.074840 7.764636 7.046149
v -2.562841 7.764636 8.436287
v 0.827139 7.764636 8.363124
v 0.931676 7.764636 10.527456
v 2.370593 7.764636 11.604903
v 4.461002 7.764636 10.923897
v 5.363371 7.764636 10.314189
v 5.753584 7.764636 8.411898
v 4.778049 7.764636 6.972984
v 7.290049 7.764636 4.778032
v 8.314363 7.764636 2.778189
v 8.363139 7.764636 0.241802
v 8.168032 7.764636 -0.636180
v 8.643146 7.764636 -1.186561
v 12.505389 7.764636 -12.807947
v 8.216810 7.764636 -14.391209
v 5.826712 7.764636 -11.931937
v 3.826871 7.764636 -4.176441
v 1.753897 7.764636 -4.318820
v -2.026296 7.764636 -3.465226
v -5.196783 7.764636 -1.270276
v -8.523794 7.764636 -2.876903
v -12.274985 7.764636 -5.454995
v -15.122840 7.764636 -5.952841
v -16.634914 7.764636 -5.343132
v -17.854334 7.764636 -3.392065
v -17.610451 7.764636 -1.270279
v -16.541044 7.764636 1.010621
vn -0.0000 1.0000 -0.0000
vn -0.0000 -1.0000 -0.0000
vn 0.7171 -0.0000 0.6969
vn -0.3098 -0.0000 -0.9508
vn 0.9683 -0.0000 0.2497
vn -0.5599 -0.0000 -0.8286
vn -0.0685 -0.0000 0.9976
vn -0.9796 -0.0000 -0.2009
vn 0.2203 -0.0000 0.9754
vn -0.8277 -0.0000 0.5612
vn 0.5692 -0.0000 0.8222
vn -0.6580 -0.0000 -0.7530
vn -0.4349 -0.0000 0.9005
vn -0.8900 -0.0000 -0.4559
vn -0.5664 -0.0000 0.8241
vn -0.9998 -0.0000 -0.0192
vn -0.1722 -0.0000 0.9851
vn -0.9762 -0.0000 0.2169
vn 0.0942 -0.0000 0.9955
vn 0.3740 -0.0000 0.9274
vn -0.7570 -0.0000 -0.6535
vn 0.7085 -0.0000 -0.7057
vn 0.8480 -0.0000 0.5300
vn -0.9006 -0.0000 -0.4346
vn 0.4842 -0.0000 -0.8750
vn 0.9935 -0.0000 -0.1142
vn -0.9861 -0.0000 0.1660
vn -0.0216 -0.0000 -0.9998
vn 0.9054 -0.0000 -0.4245
vn -0.6998 -0.0000 0.7144
vn 0.9988 -0.0000 -0.0482
vn 0.3913 -0.0000 -0.9202
vn 0.3469 -0.0000 0.9379
vn 0.5994 -0.0000 -0.8005
vn -0.7570 -0.0000 -0.6534
vt 0.375000 0.542653
vt 0.371872 0.520069
vt 0.340156 0.628458
vt 0.338186 0.503915
vt 0.321835 0.529199
vt 0.292482 0.750000
vt 0.307848 0.746915
vt 0.305681 0.603643
vt 0.315137 0.741062
vt 0.285981 0.600600
vt 0.318289 0.722802
vt 0.255446 0.608794
vt 0.310409 0.708990
vt 0.229836 0.629863
vt 0.330700 0.687921
vt 0.201628 0.617622
vt 0.201628 0.617622
vt 0.338974 0.668724
vt 0.171327 0.592875
vt 0.339368 0.644377
vt 0.149658 0.584915
vt 0.337792 0.635950
vt 0.354633 0.500000
vt 0.347094 0.500000
vt 0.137444 0.590768
vt 0.218016 0.686516
vt 0.230821 0.709692
vt 0.127594 0.609496
vt 0.251112 0.723036
vt 0.129564 0.629863
vt 0.278495 0.722334
vt 0.141581 0.647889
vt 0.280859 0.739658
s 0
f 2/1/1 20/2/1 19/3/1
f 34/1/2 52/3/2 53/2/2
f 21/4/3 55/5/3 22/5/3
f 1/6/4 44/7/4 11/7/4
f 22/5/5 56/8/5 23/8/5
f 11/7/6 45/9/6 12/9/6
f 23/8/7 57/10/7 24/10/7
f 12/9/8 46/11/8 13/11/8
f 24/10/9 58/12/9 25/12/9
f 13/11/10 47/13/10 14/13/10
f 25/12/11 59/14/11 26/14/11
f 14/13/12 48/15/12 15/15/12
f 26/14/13 60/16/13 27/17/13
f 15/15/14 49/18/14 16/18/14
f 27/17/15 61/19/15 28/19/15
f 16/18/16 50/20/16 17/20/16
f 3/1/1 34/1/1 35/1/1
f 28/19/17 62/21/17 29/21/17
f 17/20/18 51/22/18 18/22/18
f 4/23/19 37/24/19 5/24/19
f 29/21/20 63/25/20 30/25/20
f 18/22/21 52/3/21 19/3/21
f 6/26/22 39/27/22 7/27/22
f 30/25/23 64/28/23 31/28/23
f 19/3/24 34/1/24 2/1/24
f 7/27/25 40/29/25 8/29/25
f 31/28/26 65/30/26 32/30/26
f 3/1/27 53/2/27 20/2/27
f 8/29/28 41/31/28 9/31/28
f 32/30/29 66/32/29 33/32/29
f 20/2/30 36/23/30 4/23/30
f 9/31/31 42/33/31 10/33/31
f 33/32/32 38/26/32 6/26/32
f 5/24/33 54/4/33 21/4/33
f 10/33/34 43/6/34 1/6/34
f 20/2/1 4/23/1 5/24/1
f 5/24/1 21/4/1 22/5/1
f 23/8/1 24/10/1 25/12/1
f 5/24/1 22/5/1 23/8/1
f 16/18/1 17/20/1 18/22/1
f 14/13/1 15/15/1 16/18/1
f 12/9/1 13/11/1 14/13/1
f 1/6/1 11/7/1 12/9/1
f 9/31/1 10/33/1 1/6/1
f 7/27/1 8/29/1 9/31/1
f 32/30/1 33/32/1 6/26/1
f 6/26/1 7/27/1 9/31/1
f 9/31/1 1/6/1 12/9/1
f 14/13/1 16/18/1 18/22/1
f 9/31/1 12/9/1 14/13/1
f 32/30/1 6/26/1 9/31/1
f 30/25/1 31/28/1 32/30/1
f 28/19/1 29/21/1 30/25/1
f 27/17/1 28/19/1 30/25/1
f 30/25/1 32/30/1 9/31/1
f 9/31/1 14/13/1 18/22/1
f 20/2/1 5/24/1 23/8/1
f 23/8/1 25/12/1 26/14/1
f 26/14/1 27/17/1 30/25/1
f 26/14/1 30/25/1 9/31/1
f 26/14/1 9/31/1 18/22/1
f 23/8/1 26/14/1 18/22/1
f 20/2/1 23/8/1 18/22/1
f 20/2/1 18/22/1 19/3/1
f 2/1/1 3/1/1 20/2/1
f 51/22/2 50/20/2 49/18/2
f 49/18/2 48/15/2 47/13/2
f 47/13/2 46/11/2 45/9/2
f 45/9/2 44/7/2 43/6/2
f 43/6/2 42/33/2 41/31/2
f 41/31/2 40/29/2 39/27/2
f 38/26/2 66/32/2 65/30/2
f 41/31/2 39/27/2 38/26/2
f 45/9/2 43/6/2 41/31/2
f 51/22/2 49/18/2 47/13/2
f 47/13/2 45/9/2 41/31/2
f 41/31/2 38/26/2 65/30/2
f 65/30/2 64/28/2 63/25/2
f 63/25/2 62/21/2 61/19/2
f 63/25/2 61/19/2 60/16/2
f 41/31/2 65/30/2 63/25/2
f 51/22/2 47/13/2 41/31/2
f 37/24/2 36/23/2 53/2/2
f 55/5/2 54/4/2 37/24/2
f 58/12/2 57/10/2 56/8/2
f 56/8/2 55/5/2 37/24/2
f 41/31/2 63/25/2 60/16/2
f 59/14/2 58/12/2 56/8/2
f 41/31/2 60/16/2 59/14/2
f 51/22/2 41/31/2 59/14/2
f 56/8/2 37/24/2 53/2/2
f 51/22/2 59/14/2 56/8/2
f 51/22/2 56/8/2 53/2/2
f 52/3/2 51/22/2 53/2/2
f 53/2/1 35/1/1 34/1/1
f 21/4/3 54/4/3 55/5/3
f 1/6/4 43/6/4 44/7/4
f 22/5/5 55/5/5 56/8/5
f 11/7/6 44/7/6 45/9/6
f 23/8/7 56/8/7 57/10/7
f 12/9/8 45/9/8 46/11/8
f 24/10/9 57/10/9 58/12/9
f 13/11/10 46/11/10 47/13/10
f 25/12/11 58/12/11 59/14/11
f 14/13/12 47/13/12 48/15/12
f 26/14/13 59/14/13 60/16/13
f 15/15/14 48/15/14 49/18/14
f 27/17/15 60/16/15 61/19/15
f 16/18/16 49/18/16 50/20/16
f 3/1/1 2/1/1 34/1/1
f 28/19/17 61/19/17 62/21/17
f 17/20/18 50/20/18 51/22/18
f 4/23/19 36/23/19 37/24/19
f 29/21/20 62/21/20 63/25/20
f 18/22/35 51/22/35 52/3/35
f 6/26/22 38/26/22 39/27/22
f 30/25/23 63/25/23 64/28/23
f 19/3/24 52/3/24 34/1/24
f 7/27/25 39/27/25 40/29/25
f 31/28/26 64/28/26 65/30/26
f 3/1/27 35/1/27 53/2/27
f 8/29/28 40/29/28 41/31/28
f 32/30/29 65/30/29 66/32/29
f 20/2/30 53/2/30 36/23/30
f 9/31/31 41/31/31 42/33/31
f 33/32/32 66/32/32 38/26/32
f 5/24/33 37/24/33 54/4/33
f 10/33/34 42/33/34 43/6/34
