# Blender 4.1.0
# www.blender.org
mtllib bunnyBox.mtl
o Cube.001
v 2.460643 -1.528860 10.820346
v 11.570345 -2.158929 -8.435068
v 11.110128 -1.528860 -13.317657
v 9.637496 -1.528860 -14.260739
v -7.138505 -1.528860 3.728259
v -4.903531 -1.528860 5.910137
v -2.287007 -1.528860 7.668062
v 1.202751 -1.528860 7.070351
v 1.456225 -1.528860 10.070823
v 4.089459 -1.528860 10.574415
v 4.927130 -1.528860 9.992160
v 5.242463 -1.528860 8.372435
v 3.561397 -1.528860 6.434998
v 5.650848 -1.528860 4.732798
v 6.971719 -1.528860 2.707586
v 7.157917 -1.528860 0.736221
v 7.757434 -1.528860 -0.907132
v 8.085782 -1.528860 -2.009753
v 12.046182 -1.528860 -11.860538
v 8.287149 -1.528860 -14.010861
v 6.643131 -1.528860 -11.157013
v 4.432490 -1.528860 -1.933156
v 2.359516 -1.528860 -2.075535
v -1.420677 -1.528860 -1.221941
v -4.591165 -1.528860 0.973009
v -7.541788 -1.528860 -0.948371
v -11.292978 -1.528860 -3.526463
v -14.960178 -1.528860 -5.256428
v -16.472252 -1.528860 -4.646719
v -17.169365 -1.528860 -3.236130
v -16.680889 -1.528860 -1.533612
v -16.186535 -1.528860 -0.443932
v 11.570345 7.134567 -8.435068
v 11.110128 7.764636 -13.317657
v 9.637496 7.764636 -14.260739
v -7.138505 7.764636 3.728259
v -4.903531 7.764636 5.910137
v -2.287007 7.764636 7.668062
v 1.202751 7.764636 7.070351
v 1.456225 7.764636 10.070823
v 2.460643 7.764636 10.820346
v 4.089459 7.764636 10.574415
v 4.927130 7.764636 9.992160
v 5.242463 7.764636 8.372435
v 3.561397 7.764636 6.434998
v 5.650848 7.764636 4.732798
v 6.971719 7.764636 2.707586
v 7.157917 7.764636 0.736221
v 7.757434 7.764636 -0.907132
v 8.085782 7.764636 -2.009753
v 12.046182 7.764636 -11.860538
v 8.287149 7.764636 -14.010861
v 6.643131 7.764636 -11.157013
v 4.432490 7.764636 -1.933156
v 2.359516 7.764636 -2.075535
v -1.420677 7.764636 -1.221941
v -4.591165 7.764636 0.973009
v -7.541788 7.764636 -0.948371
v -11.292978 7.764636 -3.526463
v -14.960178 7.764636 -5.256428
v -16.472252 7.764636 -4.646719
v -17.169365 7.764636 -3.236130
v -16.680889 7.764636 -1.533612
v -16.186535 7.764636 -0.443932
v 2.460643 -1.528860 10.820346
v 11.570345 -2.158929 -8.435068
v 11.110128 -1.528860 -13.317657
v 9.637496 -1.528860 -14.260739
v -7.138504 -1.528860 3.728259
v -4.903531 -1.528860 5.910137
v -2.287007 -1.528860 7.668062
v 1.202752 -1.528860 7.070351
v 1.456225 -1.528860 10.070823
v 4.089459 -1.528860 10.574415
v 4.927130 -1.528860 9.992160
v 5.242463 -1.528860 8.372435
v 3.561397 -1.528860 6.434998
v 5.650848 -1.528860 4.732798
v 6.971719 -1.528860 2.707586
v 7.157917 -1.528860 0.736221
v 7.757434 -1.528860 -0.907132
v 8.085782 -1.528860 -2.009753
v 12.046182 -1.528860 -11.860538
v 8.287149 -1.528860 -14.010861
v 6.643131 -1.528860 -11.157013
v 4.432490 -1.528860 -1.933156
v 2.359516 -1.528860 -2.075535
v -1.420677 -1.528860 -1.221941
v -4.591165 -1.528860 0.973009
v -7.541788 -1.528860 -0.948371
v -11.292978 -1.528860 -3.526463
v -14.960178 -1.528860 -5.256428
v -16.472252 -1.528860 -4.646719
v -17.169365 -1.528860 -3.236130
v -16.680889 -1.528860 -1.533612
v -16.186535 -1.528860 -0.443932
v 11.570345 7.134567 -8.435068
v 11.110128 7.764636 -13.317657
v 9.637496 7.764636 -14.260739
v -7.138504 7.764636 3.728259
v -4.903531 7.764636 5.910137
v -2.287007 7.764636 7.668062
v 1.202752 7.764636 7.070351
v 1.456225 7.764636 10.070823
v 2.460643 7.764636 10.820346
v 4.089459 7.764636 10.574415
v 4.927130 7.764636 9.992160
v 5.242463 7.764636 8.372435
v 3.561397 7.764636 6.434998
v 5.650848 7.764636 4.732798
v 6.971719 7.764636 2.707586
v 7.157917 7.764636 0.736221
v 7.757434 7.764636 -0.907132
v 8.085782 7.764636 -2.009753
v 12.046182 7.764636 -11.860538
v 8.287149 7.764636 -14.010861
v 6.643131 7.764636 -11.157013
v 4.432490 7.764636 -1.933156
v 2.359516 7.764636 -2.075535
v -1.420677 7.764636 -1.221941
v -4.591165 7.764636 0.973009
v -7.541788 7.764636 -0.948371
v -11.292978 7.764636 -3.526463
v -14.960178 7.764636 -5.256428
v -16.472252 7.764636 -4.646719
v -17.169365 7.764636 -3.236130
v -16.680889 7.764636 -1.533612
v -16.186535 7.764636 -0.443932
v 2.460643 -1.528860 10.820346
v 11.570345 -2.158929 -8.435068
v 11.110128 -1.528860 -13.317657
v 9.637496 -1.528860 -14.260739
v -7.138504 -1.528860 3.728259
v -4.903531 -1.528860 5.910137
v -2.287007 -1.528860 7.668062
v 1.202752 -1.528860 7.070351
v 1.456225 -1.528860 10.070823
v 4.089459 -1.528860 10.574415
v 4.927130 -1.528860 9.992160
v 5.242463 -1.528860 8.372435
v 3.561397 -1.528860 6.434998
v 5.650848 -1.528860 4.732798
v 6.971719 -1.528860 2.707586
v 7.157917 -1.528860 0.736221
v 7.757434 -1.528860 -0.907132
v 8.085782 -1.528860 -2.009753
v 12.046182 -1.528860 -11.860538
v 8.287149 -1.528860 -14.010861
v 6.643131 -1.528860 -11.157013
v 4.432490 -1.528860 -1.933156
v 2.359516 -1.528860 -2.075535
v -1.420677 -1.528860 -1.221941
v -4.591165 -1.528860 0.973009
v -7.541788 -1.528860 -0.948371
v -11.292978 -1.528860 -3.526463
v -14.960178 -1.528860 -5.256428
v -16.472252 -1.528860 -4.646719
v -17.169365 -1.528860 -3.236130
v -16.680889 -1.528860 -1.533612
v -16.186535 -1.528860 -0.443932
v 11.570345 7.134567 -8.435068
v 11.110128 7.764636 -13.317657
v 9.637496 7.764636 -14.260739
v -7.138504 7.764636 3.728259
v -4.903531 7.764636 5.910137
v -2.287007 7.764636 7.668062
v 1.202752 7.764636 7.070351
v 1.456225 7.764636 10.070823
v 2.460643 7.764636 10.820346
v 4.089459 7.764636 10.574415
v 4.927130 7.764636 9.992160
v 5.242463 7.764636 8.372435
v 3.561397 7.764636 6.434998
v 5.650848 7.764636 4.732798
v 6.971719 7.764636 2.707586
v 7.157917 7.764636 0.736221
v 7.757434 7.764636 -0.907132
v 8.085782 7.764636 -2.009753
v 12.046182 7.764636 -11.860538
v 8.287149 7.764636 -14.010861
v 6.643131 7.764636 -11.157013
v 4.432490 7.764636 -1.933156
v 2.359516 7.764636 -2.075535
v -1.420677 7.764636 -1.221941
v -4.591165 7.764636 0.973009
v -7.541788 7.764636 -0.948371
v -11.292978 7.764636 -3.526463
v -14.960178 7.764636 -5.256428
v -16.472252 7.764636 -4.646719
v -17.169365 7.764636 -3.236130
v -16.680889 7.764636 -1.533612
v -16.186535 7.764636 -0.443932
v 2.460643 -1.528860 10.820346
v 11.570345 -2.158929 -8.435068
v 11.110128 -1.528860 -13.317657
v 9.637496 -1.528860 -14.260739
v -7.138504 -1.528860 3.728259
v -4.903531 -1.528860 5.910137
v -2.287007 -1.528860 7.668062
v 1.202752 -1.528860 7.070351
v 1.456225 -1.528860 10.070823
v 4.089459 -1.528860 10.574415
v 4.927130 -1.528860 9.992160
v 5.242463 -1.528860 8.372435
v 3.561397 -1.528860 6.434998
v 5.650848 -1.528860 4.732798
v 6.971719 -1.528860 2.707586
v 7.157917 -1.528860 0.736221
v 7.757434 -1.528860 -0.907132
v 8.085782 -1.528860 -2.009753
v 12.046182 -1.528860 -11.860538
v 8.287149 -1.528860 -14.010861
v 6.643131 -1.528860 -11.157013
v 4.432490 -1.528860 -1.933156
v 2.359516 -1.528860 -2.075535
v -1.420676 -1.528860 -1.221941
v -4.591164 -1.528860 0.973009
v -7.541788 -1.528860 -0.948371
v -11.292978 -1.528860 -3.526463
v -14.960178 -1.528860 -5.256428
v -16.472252 -1.528860 -4.646719
v -17.169365 -1.528860 -3.236130
v -16.680889 -1.528860 -1.533612
v -16.186535 -1.528860 -0.443932
v 11.570345 7.134567 -8.435068
v 11.110128 7.764636 -13.317657
v 9.637496 7.764636 -14.260739
v -7.138504 7.764636 3.728259
v -4.903531 7.764636 5.910137
v -2.287007 7.764636 7.668062
v 1.202752 7.764636 7.070351
v 1.456225 7.764636 10.070823
v 2.460643 7.764636 10.820346
v 4.089459 7.764636 10.574415
v 4.927130 7.764636 9.992160
v 5.242463 7.764636 8.372435
v 3.561397 7.764636 6.434998
v 5.650848 7.764636 4.732798
v 6.971719 7.764636 2.707586
v 7.157917 7.764636 0.736221
v 7.757434 7.764636 -0.907132
v 8.085782 7.764636 -2.009753
v 12.046182 7.764636 -11.860538
v 8.287149 7.764636 -14.010861
v 6.643131 7.764636 -11.157013
v 4.432490 7.764636 -1.933156
v 2.359516 7.764636 -2.075535
v -1.420676 7.764636 -1.221941
v -4.591164 7.764636 0.973009
v -7.541788 7.764636 -0.948371
v -11.292978 7.764636 -3.526463
v -14.960178 7.764636 -5.256428
v -16.472252 7.764636 -4.646719
v -17.169365 7.764636 -3.236130
v -16.680889 7.764636 -1.533612
v -16.186535 7.764636 -0.443932
vn -0.0000 -1.0000 -0.0000
vn -0.0000 1.0000 -0.0000
vn -0.8665 -0.0000 -0.4992
vn 0.1493 -0.0000 0.9888
vn -0.9725 -0.0000 -0.2331
vn 0.5708 -0.0000 0.8211
vn 0.0685 -0.0000 -0.9976
vn 0.9816 -0.0000 0.1911
vn -0.2203 -0.0000 -0.9754
vn 0.7553 -0.0000 -0.6554
vn -0.5692 -0.0000 -0.8222
vn 0.6316 -0.0000 0.7753
vn 0.5457 -0.0000 -0.8380
vn 0.8376 -0.0000 0.5463
vn 0.5664 -0.0000 -0.8241
vn 0.9956 -0.0000 0.0940
vn 0.4266 -0.0000 -0.9044
vn 0.9394 -0.0000 0.3427
vn 0.5393 -0.0000 -0.8421
vn -0.3740 -0.0000 -0.9274
vn 0.9584 -0.0000 0.2854
vn -0.6986 -0.0000 0.7156
vn -0.8965 -0.0000 -0.4430
vn 0.8791 -0.0000 0.4767
vn -0.5577 -0.0000 0.8301
vn -0.9612 -0.0000 0.2758
vn 0.9905 -0.0000 0.1376
vn 0.1688 -0.0000 0.9856
vn -0.9107 -0.0000 0.4131
vn 0.8414 -0.0000 -0.5405
vn -0.9965 -0.0000 0.0842
vn -0.4187 -0.0000 0.9081
vn -0.1820 -0.0000 -0.9833
vn -0.5981 -0.0000 0.8014
vn -0.5583 -0.7987 -0.2245
vn 0.5583 0.7987 0.2245
vt 0.310409 0.708990
vt 0.229836 0.629863
vt 0.305681 0.603643
vt 0.149658 0.584915
vt 0.218016 0.686516
vt 0.321835 0.529199
vt 0.338186 0.503915
vt 0.307848 0.746915
vt 0.292482 0.750000
vt 0.315137 0.741062
vt 0.285981 0.600600
vt 0.318289 0.722802
vt 0.255446 0.608794
vt 0.330700 0.687921
vt 0.201628 0.617622
vt 0.201628 0.617622
vt 0.338974 0.668724
vt 0.171327 0.592875
vt 0.339368 0.644377
vt 0.337792 0.635950
vt 0.347094 0.500000
vt 0.354633 0.500000
vt 0.137444 0.590768
vt 0.340156 0.628458
vt 0.230821 0.709692
vt 0.127594 0.609496
vt 0.375000 0.542653
vt 0.251112 0.723036
vt 0.129564 0.629863
vt 0.371872 0.520069
vt 0.278495 0.722334
vt 0.141581 0.647889
vt 0.280859 0.739658
s 0
f 13/1/1 25/2/1 22/3/1
f 60/4/2 36/5/2 45/1/2
f 53/6/3 20/7/3 21/6/3
f 42/8/4 1/9/4 10/8/4
f 54/3/5 21/6/5 22/3/5
f 43/10/6 10/8/6 11/10/6
f 55/11/7 22/3/7 23/11/7
f 44/12/8 11/10/8 12/12/8
f 56/13/9 23/11/9 24/13/9
f 45/1/10 12/12/10 13/1/10
f 57/2/11 24/13/11 25/2/11
f 46/14/12 13/1/12 14/14/12
f 58/15/13 25/2/13 26/16/13
f 47/17/14 14/14/14 15/17/14
f 59/18/15 26/16/15 27/18/15
f 48/19/16 15/17/16 16/19/16
f 60/4/17 27/18/17 28/4/17
f 49/20/18 16/19/18 17/20/18
f 35/21/19 3/22/19 4/21/19
f 61/23/20 28/4/20 29/23/20
f 50/24/21 17/20/21 18/24/21
f 37/25/22 5/5/22 6/25/22
f 62/26/23 29/23/23 30/26/23
f 33/27/24 18/24/24 2/27/24
f 38/28/25 6/25/25 7/28/25
f 63/29/26 30/26/26 31/29/26
f 19/30/27 33/27/27 2/27/27
f 39/31/28 7/28/28 8/31/28
f 64/32/29 31/29/29 32/32/29
f 34/22/30 19/30/30 3/22/30
f 40/33/31 8/31/31 9/33/31
f 36/5/32 32/32/32 5/5/32
f 52/7/33 4/21/33 20/7/33
f 41/9/34 9/33/34 1/9/34
f 77/1/1 89/2/1 86/3/1
f 124/4/2 100/5/2 109/1/2
f 117/6/3 84/7/3 85/6/3
f 106/8/4 65/9/4 74/8/4
f 118/3/5 85/6/5 86/3/5
f 107/10/6 74/8/6 75/10/6
f 119/11/7 86/3/7 87/11/7
f 108/12/8 75/10/8 76/12/8
f 120/13/9 87/11/9 88/13/9
f 109/1/10 76/12/10 77/1/10
f 121/2/11 88/13/11 89/2/11
f 110/14/12 77/1/12 78/14/12
f 122/15/13 89/2/13 90/16/13
f 111/17/14 78/14/14 79/17/14
f 123/18/15 90/16/15 91/18/15
f 112/19/16 79/17/16 80/19/16
f 124/4/17 91/18/17 92/4/17
f 113/20/18 80/19/18 81/20/18
f 99/21/19 67/22/19 68/21/19
f 125/23/20 92/4/20 93/23/20
f 114/24/21 81/20/21 82/24/21
f 101/25/22 69/5/22 70/25/22
f 126/26/23 93/23/23 94/26/23
f 97/27/24 82/24/24 66/27/24
f 102/28/25 70/25/25 71/28/25
f 127/29/26 94/26/26 95/29/26
f 83/30/27 97/27/27 66/27/27
f 103/31/28 71/28/28 72/31/28
f 128/32/29 95/29/29 96/32/29
f 98/22/30 83/30/30 67/22/30
f 104/33/31 72/31/31 73/33/31
f 100/5/32 96/32/32 69/5/32
f 116/7/33 68/21/33 84/7/33
f 105/9/34 73/33/34 65/9/34
f 141/1/1 153/2/1 150/3/1
f 188/4/2 164/5/2 173/1/2
f 181/6/3 148/7/3 149/6/3
f 170/8/4 129/9/4 138/8/4
f 182/3/5 149/6/5 150/3/5
f 171/10/6 138/8/6 139/10/6
f 183/11/7 150/3/7 151/11/7
f 172/12/8 139/10/8 140/12/8
f 184/13/9 151/11/9 152/13/9
f 173/1/10 140/12/10 141/1/10
f 185/2/11 152/13/11 153/2/11
f 174/14/12 141/1/12 142/14/12
f 186/15/13 153/2/13 154/16/13
f 175/17/14 142/14/14 143/17/14
f 187/18/15 154/16/15 155/18/15
f 176/19/16 143/17/16 144/19/16
f 188/4/17 155/18/17 156/4/17
f 177/20/18 144/19/18 145/20/18
f 163/21/19 131/22/19 132/21/19
f 189/23/20 156/4/20 157/23/20
f 178/24/21 145/20/21 146/24/21
f 165/25/22 133/5/22 134/25/22
f 190/26/23 157/23/23 158/26/23
f 161/27/24 146/24/24 130/27/24
f 166/28/25 134/25/25 135/28/25
f 191/29/26 158/26/26 159/29/26
f 147/30/27 161/27/27 130/27/27
f 167/31/28 135/28/28 136/31/28
f 192/32/29 159/29/29 160/32/29
f 162/22/30 147/30/30 131/22/30
f 168/33/31 136/31/31 137/33/31
f 164/5/32 160/32/32 133/5/32
f 180/7/33 132/21/33 148/7/33
f 169/9/34 137/33/34 129/9/34
f 205/1/1 217/2/1 214/3/1
f 252/4/2 228/5/2 237/1/2
f 245/6/3 212/7/3 213/6/3
f 234/8/4 193/9/4 202/8/4
f 246/3/5 213/6/5 214/3/5
f 235/10/6 202/8/6 203/10/6
f 247/11/7 214/3/7 215/11/7
f 236/12/8 203/10/8 204/12/8
f 248/13/9 215/11/9 216/13/9
f 237/1/10 204/12/10 205/1/10
f 249/2/11 216/13/11 217/2/11
f 238/14/12 205/1/12 206/14/12
f 250/15/13 217/2/13 218/16/13
f 239/17/14 206/14/14 207/17/14
f 251/18/15 218/16/15 219/18/15
f 240/19/16 207/17/16 208/19/16
f 252/4/17 219/18/17 220/4/17
f 241/20/18 208/19/18 209/20/18
f 227/21/19 195/22/19 196/21/19
f 253/23/20 220/4/20 221/23/20
f 242/24/21 209/20/21 210/24/21
f 229/25/22 197/5/22 198/25/22
f 254/26/23 221/23/23 222/26/23
f 225/27/24 210/24/24 194/27/24
f 230/28/25 198/25/25 199/28/25
f 255/29/26 222/26/26 223/29/26
f 211/30/27 225/27/27 194/27/27
f 231/31/28 199/28/28 200/31/28
f 256/32/29 223/29/29 224/32/29
f 226/22/30 211/30/30 195/22/30
f 232/33/31 200/31/31 201/33/31
f 228/5/32 224/32/32 197/5/32
f 244/7/33 196/21/33 212/7/33
f 233/9/34 201/33/34 193/9/34
f 19/30/35 2/27/35 18/24/35
f 18/24/1 17/20/1 16/19/1
f 16/19/1 15/17/1 14/14/1
f 13/1/1 12/12/1 11/10/1
f 16/19/1 14/14/1 13/1/1
f 3/22/1 19/30/1 18/24/1
f 18/24/1 16/19/1 13/1/1
f 13/1/1 11/10/1 10/8/1
f 10/8/1 1/9/1 9/33/1
f 8/31/1 7/28/1 6/25/1
f 10/8/1 9/33/1 8/31/1
f 3/22/1 18/24/1 13/1/1
f 13/1/1 10/8/1 8/31/1
f 8/31/1 6/25/1 5/5/1
f 5/5/1 32/32/1 31/29/1
f 31/29/1 30/26/1 29/23/1
f 29/23/1 28/4/1 27/18/1
f 29/23/1 27/18/1 26/16/1
f 5/5/1 31/29/1 29/23/1
f 13/1/1 8/31/1 5/5/1
f 4/21/1 3/22/1 13/1/1
f 21/6/1 20/7/1 4/21/1
f 24/13/1 23/11/1 22/3/1
f 22/3/1 21/6/1 4/21/1
f 13/1/1 5/5/1 29/23/1
f 29/23/1 26/16/1 25/2/1
f 25/2/1 24/13/1 22/3/1
f 22/3/1 4/21/1 13/1/1
f 13/1/1 29/23/1 25/2/1
f 50/24/36 33/27/36 51/30/36
f 51/30/2 34/22/2 35/21/2
f 35/21/2 52/7/2 53/6/2
f 54/3/2 55/11/2 56/13/2
f 35/21/2 53/6/2 54/3/2
f 50/24/2 51/30/2 35/21/2
f 48/19/2 49/20/2 50/24/2
f 46/14/2 47/17/2 48/19/2
f 43/10/2 44/12/2 45/1/2
f 45/1/2 46/14/2 48/19/2
f 48/19/2 50/24/2 35/21/2
f 54/3/2 56/13/2 57/2/2
f 48/19/2 35/21/2 54/3/2
f 42/8/2 43/10/2 45/1/2
f 45/1/2 48/19/2 54/3/2
f 45/1/2 54/3/2 57/2/2
f 41/9/2 42/8/2 45/1/2
f 39/31/2 40/33/2 41/9/2
f 37/25/2 38/28/2 39/31/2
f 63/29/2 64/32/2 36/5/2
f 36/5/2 37/25/2 39/31/2
f 39/31/2 41/9/2 45/1/2
f 45/1/2 57/2/2 58/15/2
f 58/15/2 59/18/2 60/4/2
f 60/4/2 61/23/2 62/26/2
f 62/26/2 63/29/2 36/5/2
f 36/5/2 39/31/2 45/1/2
f 45/1/2 58/15/2 60/4/2
f 60/4/2 62/26/2 36/5/2
f 53/6/3 52/7/3 20/7/3
f 42/8/4 41/9/4 1/9/4
f 54/3/5 53/6/5 21/6/5
f 43/10/6 42/8/6 10/8/6
f 55/11/7 54/3/7 22/3/7
f 44/12/8 43/10/8 11/10/8
f 56/13/9 55/11/9 23/11/9
f 45/1/10 44/12/10 12/12/10
f 57/2/11 56/13/11 24/13/11
f 46/14/12 45/1/12 13/1/12
f 58/15/13 57/2/13 25/2/13
f 47/17/14 46/14/14 14/14/14
f 59/18/15 58/15/15 26/16/15
f 48/19/16 47/17/16 15/17/16
f 60/4/17 59/18/17 27/18/17
f 49/20/18 48/19/18 16/19/18
f 35/21/19 34/22/19 3/22/19
f 61/23/20 60/4/20 28/4/20
f 50/24/21 49/20/21 17/20/21
f 37/25/22 36/5/22 5/5/22
f 62/26/23 61/23/23 29/23/23
f 33/27/24 50/24/24 18/24/24
f 38/28/25 37/25/25 6/25/25
f 63/29/26 62/26/26 30/26/26
f 19/30/27 51/30/27 33/27/27
f 39/31/28 38/28/28 7/28/28
f 64/32/29 63/29/29 31/29/29
f 34/22/30 51/30/30 19/30/30
f 40/33/31 39/31/31 8/31/31
f 36/5/32 64/32/32 32/32/32
f 52/7/33 35/21/33 4/21/33
f 41/9/34 40/33/34 9/33/34
f 83/30/35 66/27/35 82/24/35
f 82/24/1 81/20/1 80/19/1
f 80/19/1 79/17/1 78/14/1
f 77/1/1 76/12/1 75/10/1
f 80/19/1 78/14/1 77/1/1
f 67/22/1 83/30/1 82/24/1
f 82/24/1 80/19/1 77/1/1
f 77/1/1 75/10/1 74/8/1
f 74/8/1 65/9/1 73/33/1
f 72/31/1 71/28/1 70/25/1
f 74/8/1 73/33/1 72/31/1
f 67/22/1 82/24/1 77/1/1
f 77/1/1 74/8/1 72/31/1
f 72/31/1 70/25/1 69/5/1
f 69/5/1 96/32/1 95/29/1
f 95/29/1 94/26/1 93/23/1
f 93/23/1 92/4/1 91/18/1
f 93/23/1 91/18/1 90/16/1
f 69/5/1 95/29/1 93/23/1
f 77/1/1 72/31/1 69/5/1
f 68/21/1 67/22/1 77/1/1
f 85/6/1 84/7/1 68/21/1
f 88/13/1 87/11/1 86/3/1
f 86/3/1 85/6/1 68/21/1
f 77/1/1 69/5/1 93/23/1
f 93/23/1 90/16/1 89/2/1
f 89/2/1 88/13/1 86/3/1
f 86/3/1 68/21/1 77/1/1
f 77/1/1 93/23/1 89/2/1
f 114/24/36 97/27/36 115/30/36
f 115/30/2 98/22/2 99/21/2
f 99/21/2 116/7/2 117/6/2
f 118/3/2 119/11/2 120/13/2
f 99/21/2 117/6/2 118/3/2
f 114/24/2 115/30/2 99/21/2
f 112/19/2 113/20/2 114/24/2
f 110/14/2 111/17/2 112/19/2
f 107/10/2 108/12/2 109/1/2
f 109/1/2 110/14/2 112/19/2
f 112/19/2 114/24/2 99/21/2
f 118/3/2 120/13/2 121/2/2
f 112/19/2 99/21/2 118/3/2
f 106/8/2 107/10/2 109/1/2
f 109/1/2 112/19/2 118/3/2
f 109/1/2 118/3/2 121/2/2
f 105/9/2 106/8/2 109/1/2
f 103/31/2 104/33/2 105/9/2
f 101/25/2 102/28/2 103/31/2
f 127/29/2 128/32/2 100/5/2
f 100/5/2 101/25/2 103/31/2
f 103/31/2 105/9/2 109/1/2
f 109/1/2 121/2/2 122/15/2
f 122/15/2 123/18/2 124/4/2
f 124/4/2 125/23/2 126/26/2
f 126/26/2 127/29/2 100/5/2
f 100/5/2 103/31/2 109/1/2
f 109/1/2 122/15/2 124/4/2
f 124/4/2 126/26/2 100/5/2
f 117/6/3 116/7/3 84/7/3
f 106/8/4 105/9/4 65/9/4
f 118/3/5 117/6/5 85/6/5
f 107/10/6 106/8/6 74/8/6
f 119/11/7 118/3/7 86/3/7
f 108/12/8 107/10/8 75/10/8
f 120/13/9 119/11/9 87/11/9
f 109/1/10 108/12/10 76/12/10
f 121/2/11 120/13/11 88/13/11
f 110/14/12 109/1/12 77/1/12
f 122/15/13 121/2/13 89/2/13
f 111/17/14 110/14/14 78/14/14
f 123/18/15 122/15/15 90/16/15
f 112/19/16 111/17/16 79/17/16
f 124/4/17 123/18/17 91/18/17
f 113/20/18 112/19/18 80/19/18
f 99/21/19 98/22/19 67/22/19
f 125/23/20 124/4/20 92/4/20
f 114/24/21 113/20/21 81/20/21
f 101/25/22 100/5/22 69/5/22
f 126/26/23 125/23/23 93/23/23
f 97/27/24 114/24/24 82/24/24
f 102/28/25 101/25/25 70/25/25
f 127/29/26 126/26/26 94/26/26
f 83/30/27 115/30/27 97/27/27
f 103/31/28 102/28/28 71/28/28
f 128/32/29 127/29/29 95/29/29
f 98/22/30 115/30/30 83/30/30
f 104/33/31 103/31/31 72/31/31
f 100/5/32 128/32/32 96/32/32
f 116/7/33 99/21/33 68/21/33
f 105/9/34 104/33/34 73/33/34
f 147/30/35 130/27/35 146/24/35
f 146/24/1 145/20/1 144/19/1
f 144/19/1 143/17/1 142/14/1
f 141/1/1 140/12/1 139/10/1
f 144/19/1 142/14/1 141/1/1
f 131/22/1 147/30/1 146/24/1
f 146/24/1 144/19/1 141/1/1
f 141/1/1 139/10/1 138/8/1
f 138/8/1 129/9/1 137/33/1
f 136/31/1 135/28/1 134/25/1
f 138/8/1 137/33/1 136/31/1
f 131/22/1 146/24/1 141/1/1
f 141/1/1 138/8/1 136/31/1
f 136/31/1 134/25/1 133/5/1
f 133/5/1 160/32/1 159/29/1
f 159/29/1 158/26/1 157/23/1
f 157/23/1 156/4/1 155/18/1
f 157/23/1 155/18/1 154/16/1
f 133/5/1 159/29/1 157/23/1
f 141/1/1 136/31/1 133/5/1
f 132/21/1 131/22/1 141/1/1
f 149/6/1 148/7/1 132/21/1
f 152/13/1 151/11/1 150/3/1
f 150/3/1 149/6/1 132/21/1
f 141/1/1 133/5/1 157/23/1
f 157/23/1 154/16/1 153/2/1
f 153/2/1 152/13/1 150/3/1
f 150/3/1 132/21/1 141/1/1
f 141/1/1 157/23/1 153/2/1
f 178/24/36 161/27/36 179/30/36
f 179/30/2 162/22/2 163/21/2
f 163/21/2 180/7/2 181/6/2
f 182/3/2 183/11/2 184/13/2
f 163/21/2 181/6/2 182/3/2
f 178/24/2 179/30/2 163/21/2
f 176/19/2 177/20/2 178/24/2
f 174/14/2 175/17/2 176/19/2
f 171/10/2 172/12/2 173/1/2
f 173/1/2 174/14/2 176/19/2
f 176/19/2 178/24/2 163/21/2
f 182/3/2 184/13/2 185/2/2
f 176/19/2 163/21/2 182/3/2
f 170/8/2 171/10/2 173/1/2
f 173/1/2 176/19/2 182/3/2
f 173/1/2 182/3/2 185/2/2
f 169/9/2 170/8/2 173/1/2
f 167/31/2 168/33/2 169/9/2
f 165/25/2 166/28/2 167/31/2
f 191/29/2 192/32/2 164/5/2
f 164/5/2 165/25/2 167/31/2
f 167/31/2 169/9/2 173/1/2
f 173/1/2 185/2/2 186/15/2
f 186/15/2 187/18/2 188/4/2
f 188/4/2 189/23/2 190/26/2
f 190/26/2 191/29/2 164/5/2
f 164/5/2 167/31/2 173/1/2
f 173/1/2 186/15/2 188/4/2
f 188/4/2 190/26/2 164/5/2
f 181/6/3 180/7/3 148/7/3
f 170/8/4 169/9/4 129/9/4
f 182/3/5 181/6/5 149/6/5
f 171/10/6 170/8/6 138/8/6
f 183/11/7 182/3/7 150/3/7
f 172/12/8 171/10/8 139/10/8
f 184/13/9 183/11/9 151/11/9
f 173/1/10 172/12/10 140/12/10
f 185/2/11 184/13/11 152/13/11
f 174/14/12 173/1/12 141/1/12
f 186/15/13 185/2/13 153/2/13
f 175/17/14 174/14/14 142/14/14
f 187/18/15 186/15/15 154/16/15
f 176/19/16 175/17/16 143/17/16
f 188/4/17 187/18/17 155/18/17
f 177/20/18 176/19/18 144/19/18
f 163/21/19 162/22/19 131/22/19
f 189/23/20 188/4/20 156/4/20
f 178/24/21 177/20/21 145/20/21
f 165/25/22 164/5/22 133/5/22
f 190/26/23 189/23/23 157/23/23
f 161/27/24 178/24/24 146/24/24
f 166/28/25 165/25/25 134/25/25
f 191/29/26 190/26/26 158/26/26
f 147/30/27 179/30/27 161/27/27
f 167/31/28 166/28/28 135/28/28
f 192/32/29 191/29/29 159/29/29
f 162/22/30 179/30/30 147/30/30
f 168/33/31 167/31/31 136/31/31
f 164/5/32 192/32/32 160/32/32
f 180/7/33 163/21/33 132/21/33
f 169/9/34 168/33/34 137/33/34
f 211/30/35 194/27/35 210/24/35
f 210/24/1 209/20/1 208/19/1
f 208/19/1 207/17/1 206/14/1
f 205/1/1 204/12/1 203/10/1
f 208/19/1 206/14/1 205/1/1
f 195/22/1 211/30/1 210/24/1
f 210/24/1 208/19/1 205/1/1
f 205/1/1 203/10/1 202/8/1
f 202/8/1 193/9/1 201/33/1
f 200/31/1 199/28/1 198/25/1
f 202/8/1 201/33/1 200/31/1
f 195/22/1 210/24/1 205/1/1
f 205/1/1 202/8/1 200/31/1
f 200/31/1 198/25/1 197/5/1
f 197/5/1 224/32/1 223/29/1
f 223/29/1 222/26/1 221/23/1
f 221/23/1 220/4/1 219/18/1
f 221/23/1 219/18/1 218/16/1
f 197/5/1 223/29/1 221/23/1
f 205/1/1 200/31/1 197/5/1
f 196/21/1 195/22/1 205/1/1
f 213/6/1 212/7/1 196/21/1
f 216/13/1 215/11/1 214/3/1
f 214/3/1 213/6/1 196/21/1
f 205/1/1 197/5/1 221/23/1
f 221/23/1 218/16/1 217/2/1
f 217/2/1 216/13/1 214/3/1
f 214/3/1 196/21/1 205/1/1
f 205/1/1 221/23/1 217/2/1
f 242/24/36 225/27/36 243/30/36
f 243/30/2 226/22/2 227/21/2
f 227/21/2 244/7/2 245/6/2
f 246/3/2 247/11/2 248/13/2
f 227/21/2 245/6/2 246/3/2
f 242/24/2 243/30/2 227/21/2
f 240/19/2 241/20/2 242/24/2
f 238/14/2 239/17/2 240/19/2
f 235/10/2 236/12/2 237/1/2
f 237/1/2 238/14/2 240/19/2
f 240/19/2 242/24/2 227/21/2
f 246/3/2 248/13/2 249/2/2
f 240/19/2 227/21/2 246/3/2
f 234/8/2 235/10/2 237/1/2
f 237/1/2 240/19/2 246/3/2
f 237/1/2 246/3/2 249/2/2
f 233/9/2 234/8/2 237/1/2
f 231/31/2 232/33/2 233/9/2
f 229/25/2 230/28/2 231/31/2
f 255/29/2 256/32/2 228/5/2
f 228/5/2 229/25/2 231/31/2
f 231/31/2 233/9/2 237/1/2
f 237/1/2 249/2/2 250/15/2
f 250/15/2 251/18/2 252/4/2
f 252/4/2 253/23/2 254/26/2
f 254/26/2 255/29/2 228/5/2
f 228/5/2 231/31/2 237/1/2
f 237/1/2 250/15/2 252/4/2
f 252/4/2 254/26/2 228/5/2
f 245/6/3 244/7/3 212/7/3
f 234/8/4 233/9/4 193/9/4
f 246/3/5 245/6/5 213/6/5
f 235/10/6 234/8/6 202/8/6
f 247/11/7 246/3/7 214/3/7
f 236/12/8 235/10/8 203/10/8
f 248/13/9 247/11/9 215/11/9
f 237/1/10 236/12/10 204/12/10
f 249/2/11 248/13/11 216/13/11
f 238/14/12 237/1/12 205/1/12
f 250/15/13 249/2/13 217/2/13
f 239/17/14 238/14/14 206/14/14
f 251/18/15 250/15/15 218/16/15
f 240/19/16 239/17/16 207/17/16
f 252/4/17 251/18/17 219/18/17
f 241/20/18 240/19/18 208/19/18
f 227/21/19 226/22/19 195/22/19
f 253/23/20 252/4/20 220/4/20
f 242/24/21 241/20/21 209/20/21
f 229/25/22 228/5/22 197/5/22
f 254/26/23 253/23/23 221/23/23
f 225/27/24 242/24/24 210/24/24
f 230/28/25 229/25/25 198/25/25
f 255/29/26 254/26/26 222/26/26
f 211/30/27 243/30/27 225/27/27
f 231/31/28 230/28/28 199/28/28
f 256/32/29 255/29/29 223/29/29
f 226/22/30 243/30/30 211/30/30
f 232/33/31 231/31/31 200/31/31
f 228/5/32 256/32/32 224/32/32
f 244/7/33 227/21/33 196/21/33
f 233/9/34 232/33/34 201/33/34
