# Blender 4.1.0
# www.blender.org
mtllib bunnyBox.mtl
o Cube
v 2.370593 -1.528860 11.604903
v 12.956871 -1.528860 -10.125564
v 10.371154 -1.528860 -14.898634
v 9.319626 -1.528860 -14.799099
v -7.078368 -1.528860 5.034704
v -5.074840 -1.528860 7.046149
v -2.562841 -1.528860 8.436287
v 0.827139 -1.528860 8.363124
v 0.931676 -1.528860 10.527456
v 4.461002 -1.528860 10.923897
v 5.363371 -1.528860 10.314189
v 5.753584 -1.528860 8.411898
v 4.778049 -1.528860 6.972984
v 7.290049 -1.528860 4.778032
v 8.314363 -1.528860 2.778189
v 8.363139 -1.528860 0.241802
v 8.168032 -1.528860 -0.636180
v 8.643146 -1.528860 -1.186561
v 12.505389 -1.528860 -12.807947
v 8.216810 -1.528860 -14.391209
v 5.826712 -1.528860 -11.931937
v 3.826871 -1.528860 -4.176441
v 1.753897 -1.528860 -4.318820
v -2.026296 -1.528860 -3.465226
v -5.196783 -1.528860 -1.270276
v -8.523794 -1.528860 -2.876903
v -12.274985 -1.528860 -5.454995
v -15.122840 -1.528860 -5.952841
v -16.634914 -1.528860 -5.343132
v -17.854334 -1.528860 -3.392065
v -17.610451 -1.528860 -1.270279
v -16.541044 -1.528860 1.010621
v 12.956871 7.764636 -10.125564
v 10.371154 7.764636 -14.898634
v 9.319626 7.764636 -14.799099
v -7.078368 7.764636 5.034704
v -5.074840 7.764636 7.046149
v -2.562841 7.764636 8.436287
v 0.827139 7.764636 8.363124
v 0.931676 7.764636 10.527456
v 2.370593 7.764636 11.604903
v 4.461002 7.764636 10.923897
v 5.363371 7.764636 10.314189
v 5.753584 7.764636 8.411898
v 4.778049 7.764636 6.972984
v 7.290049 7.764636 4.778032
v 8.314363 7.764636 2.778189
v 8.363139 7.764636 0.241802
v 8.168032 7.764636 -0.636180
v 8.643146 7.764636 -1.186561
v 12.505389 7.764636 -12.807947
v 8.216810 7.764636 -14.391209
v 5.826712 7.764636 -11.931937
v 3.826871 7.764636 -4.176441
v 1.753897 7.764636 -4.318820
v -2.026296 7.764636 -3.465226
v -5.196783 7.764636 -1.270276
v -8.523794 7.764636 -2.876903
v -12.274985 7.764636 -5.454995
v -15.122840 7.764636 -5.952841
v -16.634914 7.764636 -5.343132
v -17.854334 7.764636 -3.392065
v -17.610451 7.764636 -1.270279
v -16.541044 7.764636 1.010621
v 2.370593 -1.528860 11.604903
v 12.956871 -1.528860 -10.125564
v 10.371154 -1.528860 -14.898634
v 9.319626 -1.528860 -14.799099
v -7.078368 -1.528860 5.034704
v -5.074840 -1.528860 7.046149
v -2.562841 -1.528860 8.436287
v 0.827139 -1.528860 8.363124
v 0.931676 -1.528860 10.527456
v 4.461002 -1.528860 10.923897
v 5.363371 -1.528860 10.314189
v 5.753584 -1.528860 8.411898
v 4.778049 -1.528860 6.972984
v 7.290049 -1.528860 4.778032
v 8.314363 -1.528860 2.778189
v 8.363139 -1.528860 0.241802
v 8.168032 -1.528860 -0.636180
v 8.643146 -1.528860 -1.186561
v 12.505389 -1.528860 -12.807947
v 8.216810 -1.528860 -14.391209
v 5.826712 -1.528860 -11.931937
v 3.826872 -1.528860 -4.176441
v 1.753898 -1.528860 -4.318820
v -2.026295 -1.528860 -3.465226
v -5.196783 -1.528860 -1.270276
v -8.523794 -1.528860 -2.876903
v -12.274985 -1.528860 -5.454995
v -15.122840 -1.528860 -5.952841
v -16.634914 -1.528860 -5.343132
v -17.854334 -1.528860 -3.392065
v -17.610451 -1.528860 -1.270279
v -16.541044 -1.528860 1.010621
v 12.956871 7.764636 -10.125564
v 10.371154 7.764636 -14.898634
v 9.319626 7.764636 -14.799099
v -7.078368 7.764636 5.034704
v -5.074840 7.764636 7.046149
v -2.562841 7.764636 8.436287
v 0.827139 7.764636 8.363124
v 0.931676 7.764636 10.527456
v 2.370593 7.764636 11.604903
v 4.461002 7.764636 10.923897
v 5.363371 7.764636 10.314189
v 5.753584 7.764636 8.411898
v 4.778049 7.764636 6.972984
v 7.290049 7.764636 4.778032
v 8.314363 7.764636 2.778189
v 8.363139 7.764636 0.241802
v 8.168032 7.764636 -0.636180
v 8.643146 7.764636 -1.186561
v 12.505389 7.764636 -12.807947
v 8.216810 7.764636 -14.391209
v 5.826712 7.764636 -11.931937
v 3.826872 7.764636 -4.176441
v 1.753898 7.764636 -4.318820
v -2.026295 7.764636 -3.465226
v -5.196783 7.764636 -1.270276
v -8.523794 7.764636 -2.876903
v -12.274985 7.764636 -5.454995
v -15.122840 7.764636 -5.952841
v -16.634914 7.764636 -5.343132
v -17.854334 7.764636 -3.392065
v -17.610451 7.764636 -1.270279
v -16.541044 7.764636 1.010621
v 2.370593 -1.528860 11.604903
v 12.956871 -1.528860 -10.125564
v 10.371154 -1.528860 -14.898634
v 9.319626 -1.528860 -14.799099
v -7.078368 -1.528860 5.034704
v -5.074840 -1.528860 7.046149
v -2.562841 -1.528860 8.436287
v 0.827139 -1.528860 8.363124
v 0.931676 -1.528860 10.527456
v 4.461002 -1.528860 10.923897
v 5.363371 -1.528860 10.314189
v 5.753584 -1.528860 8.411898
v 4.778049 -1.528860 6.972984
v 7.290049 -1.528860 4.778032
v 8.314363 -1.528860 2.778189
v 8.363139 -1.528860 0.241802
v 8.168032 -1.528860 -0.636180
v 8.643146 -1.528860 -1.186561
v 12.505389 -1.528860 -12.807947
v 8.216810 -1.528860 -14.391209
v 5.826712 -1.528860 -11.931937
v 3.826872 -1.528860 -4.176441
v 1.753898 -1.528860 -4.318820
v -2.026295 -1.528860 -3.465226
v -5.196783 -1.528860 -1.270276
v -8.523794 -1.528860 -2.876903
v -12.274985 -1.528860 -5.454995
v -15.122840 -1.528860 -5.952841
v -16.634914 -1.528860 -5.343132
v -17.854334 -1.528860 -3.392065
v -17.610451 -1.528860 -1.270279
v -16.541044 -1.528860 1.010621
v 12.956871 7.764636 -10.125564
v 10.371154 7.764636 -14.898634
v 9.319626 7.764636 -14.799099
v -7.078368 7.764636 5.034704
v -5.074840 7.764636 7.046149
v -2.562841 7.764636 8.436287
v 0.827139 7.764636 8.363124
v 0.931676 7.764636 10.527456
v 2.370593 7.764636 11.604903
v 4.461002 7.764636 10.923897
v 5.363371 7.764636 10.314189
v 5.753584 7.764636 8.411898
v 4.778049 7.764636 6.972984
v 7.290049 7.764636 4.778032
v 8.314363 7.764636 2.778189
v 8.363139 7.764636 0.241802
v 8.168032 7.764636 -0.636180
v 8.643146 7.764636 -1.186561
v 12.505389 7.764636 -12.807947
v 8.216810 7.764636 -14.391209
v 5.826712 7.764636 -11.931937
v 3.826872 7.764636 -4.176441
v 1.753898 7.764636 -4.318820
v -2.026295 7.764636 -3.465226
v -5.196783 7.764636 -1.270276
v -8.523794 7.764636 -2.876903
v -12.274985 7.764636 -5.454995
v -15.122840 7.764636 -5.952841
v -16.634914 7.764636 -5.343132
v -17.854334 7.764636 -3.392065
v -17.610451 7.764636 -1.270279
v -16.541044 7.764636 1.010621
v 2.370593 -1.528860 11.604903
v 12.956871 -1.528860 -10.125564
v 10.371154 -1.528860 -14.898634
v 9.319626 -1.528860 -14.799099
v -7.078368 -1.528860 5.034704
v -5.074839 -1.528860 7.046149
v -2.562841 -1.528860 8.436287
v 0.827139 -1.528860 8.363124
v 0.931677 -1.528860 10.527456
v 4.461002 -1.528860 10.923897
v 5.363371 -1.528860 10.314189
v 5.753584 -1.528860 8.411898
v 4.778049 -1.528860 6.972984
v 7.290049 -1.528860 4.778032
v 8.314363 -1.528860 2.778189
v 8.363139 -1.528860 0.241802
v 8.168032 -1.528860 -0.636180
v 8.643146 -1.528860 -1.186561
v 12.505389 -1.528860 -12.807947
v 8.216810 -1.528860 -14.391209
v 5.826712 -1.528860 -11.931937
v 3.826872 -1.528860 -4.176441
v 1.753898 -1.528860 -4.318820
v -2.026295 -1.528860 -3.465226
v -5.196783 -1.528860 -1.270276
v -8.523794 -1.528860 -2.876903
v -12.274985 -1.528860 -5.454995
v -15.122840 -1.528860 -5.952841
v -16.634914 -1.528860 -5.343132
v -17.854334 -1.528860 -3.392065
v -17.610451 -1.528860 -1.270279
v -16.541044 -1.528860 1.010621
v 12.956871 7.764636 -10.125564
v 10.371154 7.764636 -14.898634
v 9.319626 7.764636 -14.799099
v -7.078368 7.764636 5.034704
v -5.074839 7.764636 7.046149
v -2.562841 7.764636 8.436287
v 0.827139 7.764636 8.363124
v 0.931677 7.764636 10.527456
v 2.370593 7.764636 11.604903
v 4.461002 7.764636 10.923897
v 5.363371 7.764636 10.314189
v 5.753584 7.764636 8.411898
v 4.778049 7.764636 6.972984
v 7.290049 7.764636 4.778032
v 8.314363 7.764636 2.778189
v 8.363139 7.764636 0.241802
v 8.168032 7.764636 -0.636180
v 8.643146 7.764636 -1.186561
v 12.505389 7.764636 -12.807947
v 8.216810 7.764636 -14.391209
v 5.826712 7.764636 -11.931937
v 3.826872 7.764636 -4.176441
v 1.753898 7.764636 -4.318820
v -2.026295 7.764636 -3.465226
v -5.196783 7.764636 -1.270276
v -8.523794 7.764636 -2.876903
v -12.274985 7.764636 -5.454995
v -15.122840 7.764636 -5.952841
v -16.634914 7.764636 -5.343132
v -17.854334 7.764636 -3.392065
v -17.610451 7.764636 -1.270279
v -16.541044 7.764636 1.010621
vn -0.0000 1.0000 -0.0000
vn -0.0000 -1.0000 -0.0000
vn 0.7171 -0.0000 0.6969
vn -0.3098 -0.0000 -0.9508
vn 0.9683 -0.0000 0.2497
vn -0.5599 -0.0000 -0.8286
vn -0.0685 -0.0000 0.9976
vn -0.9796 -0.0000 -0.2009
vn 0.2203 -0.0000 0.9754
vn -0.8277 -0.0000 0.5612
vn 0.5692 -0.0000 0.8222
vn -0.6580 -0.0000 -0.7530
vn -0.4349 -0.0000 0.9005
vn -0.8900 -0.0000 -0.4559
vn -0.5664 -0.0000 0.8241
vn -0.9998 -0.0000 -0.0192
vn -0.1722 -0.0000 0.9851
vn -0.9762 -0.0000 0.2169
vn 0.0942 -0.0000 0.9955
vn 0.3740 -0.0000 0.9274
vn -0.7570 -0.0000 -0.6535
vn 0.7085 -0.0000 -0.7057
vn 0.8480 -0.0000 0.5300
vn -0.9006 -0.0000 -0.4346
vn 0.4842 -0.0000 -0.8750
vn 0.9935 -0.0000 -0.1142
vn -0.9861 -0.0000 0.1660
vn -0.0216 -0.0000 -0.9998
vn 0.9054 -0.0000 -0.4245
vn -0.6998 -0.0000 0.7144
vn 0.9988 -0.0000 -0.0482
vn 0.3913 -0.0000 -0.9202
vn 0.3469 -0.0000 0.9379
vn 0.5994 -0.0000 -0.8005
vn -0.7171 -0.0000 -0.6969
vn 0.3098 -0.0000 0.9508
vn -0.9683 -0.0000 -0.2497
vn 0.5599 -0.0000 0.8286
vn 0.0685 -0.0000 -0.9976
vn 0.9796 -0.0000 0.2009
vn -0.2203 -0.0000 -0.9754
vn 0.8277 -0.0000 -0.5612
vn -0.5692 -0.0000 -0.8222
vn 0.6580 -0.0000 0.7530
vn 0.4349 -0.0000 -0.9005
vn 0.8900 -0.0000 0.4559
vn 0.5664 -0.0000 -0.8241
vn 0.9998 -0.0000 0.0192
vn 0.1722 -0.0000 -0.9851
vn 0.9762 -0.0000 -0.2169
vn -0.0942 -0.0000 -0.9955
vn -0.3740 -0.0000 -0.9274
vn 0.7570 -0.0000 0.6535
vn -0.7085 -0.0000 0.7057
vn -0.8480 -0.0000 -0.5300
vn 0.9006 -0.0000 0.4346
vn -0.4842 -0.0000 0.8750
vn -0.9935 -0.0000 0.1142
vn 0.9861 -0.0000 -0.1660
vn 0.0216 -0.0000 0.9998
vn -0.9054 -0.0000 0.4245
vn 0.6998 -0.0000 -0.7144
vn -0.9988 -0.0000 0.0482
vn -0.3913 -0.0000 0.9202
vn -0.3469 -0.0000 -0.9379
vn -0.5994 -0.0000 0.8005
vn -0.7570 -0.0000 -0.6534
vn 0.7570 -0.0000 0.6534
vt 0.229836 0.629863
vt 0.278495 0.722334
vt 0.315137 0.741062
vt 0.218016 0.686516
vt 0.338186 0.503915
vt 0.321835 0.529199
vt 0.292482 0.750000
vt 0.307848 0.746915
vt 0.305681 0.603643
vt 0.285981 0.600600
vt 0.318289 0.722802
vt 0.255446 0.608794
vt 0.310409 0.708990
vt 0.330700 0.687921
vt 0.201628 0.617622
vt 0.201628 0.617622
vt 0.338974 0.668724
vt 0.171327 0.592875
vt 0.339368 0.644377
vt 0.149658 0.584915
vt 0.337792 0.635950
vt 0.354633 0.500000
vt 0.347094 0.500000
vt 0.137444 0.590768
vt 0.340156 0.628458
vt 0.230821 0.709692
vt 0.127594 0.609496
vt 0.375000 0.542653
vt 0.251112 0.723036
vt 0.129564 0.629863
vt 0.371872 0.520069
vt 0.141581 0.647889
vt 0.280859 0.739658
s 0
f 25/1/1 8/2/1 11/3/1
f 39/2/2 36/4/2 57/1/2
f 20/5/3 53/6/3 21/6/3
f 1/7/4 42/8/4 10/8/4
f 21/6/5 54/9/5 22/9/5
f 10/8/6 43/3/6 11/3/6
f 22/9/7 55/10/7 23/10/7
f 11/3/8 44/11/8 12/11/8
f 23/10/9 56/12/9 24/12/9
f 12/11/10 45/13/10 13/13/10
f 24/12/11 57/1/11 25/1/11
f 13/13/12 46/14/12 14/14/12
f 25/1/13 58/15/13 26/16/13
f 14/14/14 47/17/14 15/17/14
f 26/16/15 59/18/15 27/18/15
f 15/17/16 48/19/16 16/19/16
f 27/18/17 60/20/17 28/20/17
f 16/19/18 49/21/18 17/21/18
f 3/22/19 35/23/19 4/23/19
f 28/20/20 61/24/20 29/24/20
f 17/21/21 50/25/21 18/25/21
f 5/4/22 37/26/22 6/26/22
f 29/24/23 62/27/23 30/27/23
f 18/25/24 33/28/24 2/28/24
f 6/26/25 38/29/25 7/29/25
f 30/27/26 63/30/26 31/30/26
f 2/28/27 51/31/27 19/31/27
f 7/29/28 39/2/28 8/2/28
f 31/30/29 64/32/29 32/32/29
f 19/31/30 34/22/30 3/22/30
f 8/2/31 40/33/31 9/33/31
f 32/32/32 36/4/32 5/4/32
f 4/23/33 52/5/33 20/5/33
f 9/33/34 41/7/34 1/7/34
f 89/1/1 72/2/1 75/3/1
f 103/2/2 100/4/2 121/1/2
f 84/5/3 117/6/3 85/6/3
f 65/7/4 106/8/4 74/8/4
f 85/6/5 118/9/5 86/9/5
f 74/8/6 107/3/6 75/3/6
f 86/9/7 119/10/7 87/10/7
f 75/3/8 108/11/8 76/11/8
f 87/10/9 120/12/9 88/12/9
f 76/11/10 109/13/10 77/13/10
f 88/12/11 121/1/11 89/1/11
f 77/13/12 110/14/12 78/14/12
f 89/1/13 122/15/13 90/16/13
f 78/14/14 111/17/14 79/17/14
f 90/16/15 123/18/15 91/18/15
f 79/17/16 112/19/16 80/19/16
f 91/18/17 124/20/17 92/20/17
f 80/19/18 113/21/18 81/21/18
f 67/22/19 99/23/19 68/23/19
f 92/20/20 125/24/20 93/24/20
f 81/21/21 114/25/21 82/25/21
f 69/4/22 101/26/22 70/26/22
f 93/24/23 126/27/23 94/27/23
f 82/25/24 97/28/24 66/28/24
f 70/26/25 102/29/25 71/29/25
f 94/27/26 127/30/26 95/30/26
f 66/28/27 115/31/27 83/31/27
f 71/29/28 103/2/28 72/2/28
f 95/30/29 128/32/29 96/32/29
f 83/31/30 98/22/30 67/22/30
f 72/2/31 104/33/31 73/33/31
f 96/32/32 100/4/32 69/4/32
f 68/23/33 116/5/33 84/5/33
f 73/33/34 105/7/34 65/7/34
f 136/2/2 133/4/2 153/1/2
f 185/1/1 167/2/1 171/3/1
f 181/6/35 148/5/35 149/6/35
f 170/8/36 129/7/36 138/8/36
f 182/9/37 149/6/37 150/9/37
f 171/3/38 138/8/38 139/3/38
f 183/10/39 150/9/39 151/10/39
f 172/11/40 139/3/40 140/11/40
f 184/12/41 151/10/41 152/12/41
f 173/13/42 140/11/42 141/13/42
f 185/1/43 152/12/43 153/1/43
f 174/14/44 141/13/44 142/14/44
f 186/15/45 153/1/45 154/16/45
f 175/17/46 142/14/46 143/17/46
f 187/18/47 154/16/47 155/18/47
f 176/19/48 143/17/48 144/19/48
f 188/20/49 155/18/49 156/20/49
f 177/21/50 144/19/50 145/21/50
f 163/23/51 131/22/51 132/23/51
f 189/24/52 156/20/52 157/24/52
f 178/25/53 145/21/53 146/25/53
f 165/26/54 133/4/54 134/26/54
f 190/27/55 157/24/55 158/27/55
f 161/28/56 146/25/56 130/28/56
f 166/29/57 134/26/57 135/29/57
f 191/30/58 158/27/58 159/30/58
f 179/31/59 130/28/59 147/31/59
f 167/2/60 135/29/60 136/2/60
f 192/32/61 159/30/61 160/32/61
f 162/22/62 147/31/62 131/22/62
f 168/33/63 136/2/63 137/33/63
f 164/4/64 160/32/64 133/4/64
f 180/5/65 132/23/65 148/5/65
f 169/7/66 137/33/66 129/7/66
f 200/2/2 197/4/2 217/1/2
f 249/1/1 231/2/1 235/3/1
f 245/6/35 212/5/35 213/6/35
f 234/8/36 193/7/36 202/8/36
f 246/9/37 213/6/37 214/9/37
f 235/3/38 202/8/38 203/3/38
f 247/10/39 214/9/39 215/10/39
f 236/11/40 203/3/40 204/11/40
f 248/12/41 215/10/41 216/12/41
f 237/13/42 204/11/42 205/13/42
f 249/1/43 216/12/43 217/1/43
f 238/14/44 205/13/44 206/14/44
f 250/15/45 217/1/45 218/16/45
f 239/17/46 206/14/46 207/17/46
f 251/18/47 218/16/47 219/18/47
f 240/19/48 207/17/48 208/19/48
f 252/20/49 219/18/49 220/20/49
f 241/21/50 208/19/50 209/21/50
f 227/23/51 195/22/51 196/23/51
f 253/24/52 220/20/52 221/24/52
f 242/25/53 209/21/53 210/25/53
f 229/26/54 197/4/54 198/26/54
f 254/27/55 221/24/55 222/27/55
f 225/28/56 210/25/56 194/28/56
f 230/29/57 198/26/57 199/29/57
f 255/30/58 222/27/58 223/30/58
f 243/31/59 194/28/59 211/31/59
f 231/2/60 199/29/60 200/2/60
f 256/32/61 223/30/61 224/32/61
f 226/22/62 211/31/62 195/22/62
f 232/33/63 200/2/63 201/33/63
f 228/4/64 224/32/64 197/4/64
f 244/5/65 196/23/65 212/5/65
f 233/7/66 201/33/66 193/7/66
f 18/25/1 2/28/1 19/31/1
f 19/31/1 3/22/1 4/23/1
f 4/23/1 20/5/1 21/6/1
f 22/9/1 23/10/1 24/12/1
f 4/23/1 21/6/1 22/9/1
f 18/25/1 19/31/1 4/23/1
f 15/17/1 16/19/1 17/21/1
f 17/21/1 18/25/1 4/23/1
f 22/9/1 24/12/1 25/1/1
f 17/21/1 4/23/1 22/9/1
f 14/14/1 15/17/1 17/21/1
f 11/3/1 12/11/1 13/13/1
f 13/13/1 14/14/1 17/21/1
f 17/21/1 22/9/1 25/1/1
f 26/16/1 27/18/1 28/20/1
f 13/13/1 17/21/1 25/1/1
f 25/1/1 26/16/1 28/20/1
f 28/20/1 29/24/1 30/27/1
f 30/27/1 31/30/1 32/32/1
f 5/4/1 6/26/1 7/29/1
f 30/27/1 32/32/1 5/4/1
f 25/1/1 28/20/1 30/27/1
f 11/3/1 13/13/1 25/1/1
f 1/7/1 10/8/1 11/3/1
f 8/2/1 9/33/1 1/7/1
f 5/4/1 7/29/1 8/2/1
f 25/1/1 30/27/1 5/4/1
f 8/2/1 1/7/1 11/3/1
f 25/1/1 5/4/1 8/2/1
f 51/31/2 33/28/2 50/25/2
f 49/21/2 48/19/2 47/17/2
f 51/31/2 50/25/2 49/21/2
f 35/23/2 34/22/2 51/31/2
f 53/6/2 52/5/2 35/23/2
f 56/12/2 55/10/2 54/9/2
f 54/9/2 53/6/2 35/23/2
f 35/23/2 51/31/2 49/21/2
f 49/21/2 47/17/2 46/14/2
f 45/13/2 44/11/2 43/3/2
f 49/21/2 46/14/2 45/13/2
f 54/9/2 35/23/2 49/21/2
f 57/1/2 56/12/2 54/9/2
f 60/20/2 59/18/2 58/15/2
f 57/1/2 54/9/2 49/21/2
f 60/20/2 58/15/2 57/1/2
f 62/27/2 61/24/2 60/20/2
f 64/32/2 63/30/2 62/27/2
f 38/29/2 37/26/2 36/4/2
f 36/4/2 64/32/2 62/27/2
f 62/27/2 60/20/2 57/1/2
f 57/1/2 49/21/2 45/13/2
f 45/13/2 43/3/2 42/8/2
f 42/8/2 41/7/2 40/33/2
f 39/2/2 38/29/2 36/4/2
f 42/8/2 40/33/2 39/2/2
f 57/1/2 45/13/2 42/8/2
f 36/4/2 62/27/2 57/1/2
f 57/1/2 42/8/2 39/2/2
f 20/5/3 52/5/3 53/6/3
f 1/7/4 41/7/4 42/8/4
f 21/6/5 53/6/5 54/9/5
f 10/8/6 42/8/6 43/3/6
f 22/9/7 54/9/7 55/10/7
f 11/3/8 43/3/8 44/11/8
f 23/10/9 55/10/9 56/12/9
f 12/11/10 44/11/10 45/13/10
f 24/12/11 56/12/11 57/1/11
f 13/13/12 45/13/12 46/14/12
f 25/1/13 57/1/13 58/15/13
f 14/14/14 46/14/14 47/17/14
f 26/16/15 58/15/15 59/18/15
f 15/17/16 47/17/16 48/19/16
f 27/18/17 59/18/17 60/20/17
f 16/19/18 48/19/18 49/21/18
f 3/22/19 34/22/19 35/23/19
f 28/20/20 60/20/20 61/24/20
f 17/21/67 49/21/67 50/25/67
f 5/4/22 36/4/22 37/26/22
f 29/24/23 61/24/23 62/27/23
f 18/25/24 50/25/24 33/28/24
f 6/26/25 37/26/25 38/29/25
f 30/27/26 62/27/26 63/30/26
f 2/28/27 33/28/27 51/31/27
f 7/29/28 38/29/28 39/2/28
f 31/30/29 63/30/29 64/32/29
f 19/31/30 51/31/30 34/22/30
f 8/2/31 39/2/31 40/33/31
f 32/32/32 64/32/32 36/4/32
f 4/23/33 35/23/33 52/5/33
f 9/33/34 40/33/34 41/7/34
f 82/25/1 66/28/1 83/31/1
f 83/31/1 67/22/1 68/23/1
f 68/23/1 84/5/1 85/6/1
f 86/9/1 87/10/1 88/12/1
f 68/23/1 85/6/1 86/9/1
f 82/25/1 83/31/1 68/23/1
f 79/17/1 80/19/1 81/21/1
f 81/21/1 82/25/1 68/23/1
f 86/9/1 88/12/1 89/1/1
f 81/21/1 68/23/1 86/9/1
f 78/14/1 79/17/1 81/21/1
f 75/3/1 76/11/1 77/13/1
f 77/13/1 78/14/1 81/21/1
f 81/21/1 86/9/1 89/1/1
f 90/16/1 91/18/1 92/20/1
f 77/13/1 81/21/1 89/1/1
f 89/1/1 90/16/1 92/20/1
f 92/20/1 93/24/1 94/27/1
f 94/27/1 95/30/1 96/32/1
f 69/4/1 70/26/1 71/29/1
f 94/27/1 96/32/1 69/4/1
f 89/1/1 92/20/1 94/27/1
f 75/3/1 77/13/1 89/1/1
f 65/7/1 74/8/1 75/3/1
f 72/2/1 73/33/1 65/7/1
f 69/4/1 71/29/1 72/2/1
f 89/1/1 94/27/1 69/4/1
f 72/2/1 65/7/1 75/3/1
f 89/1/1 69/4/1 72/2/1
f 115/31/2 97/28/2 114/25/2
f 113/21/2 112/19/2 111/17/2
f 115/31/2 114/25/2 113/21/2
f 99/23/2 98/22/2 115/31/2
f 117/6/2 116/5/2 99/23/2
f 120/12/2 119/10/2 118/9/2
f 118/9/2 117/6/2 99/23/2
f 99/23/2 115/31/2 113/21/2
f 113/21/2 111/17/2 110/14/2
f 109/13/2 108/11/2 107/3/2
f 113/21/2 110/14/2 109/13/2
f 118/9/2 99/23/2 113/21/2
f 121/1/2 120/12/2 118/9/2
f 124/20/2 123/18/2 122/15/2
f 121/1/2 118/9/2 113/21/2
f 124/20/2 122/15/2 121/1/2
f 126/27/2 125/24/2 124/20/2
f 128/32/2 127/30/2 126/27/2
f 102/29/2 101/26/2 100/4/2
f 100/4/2 128/32/2 126/27/2
f 126/27/2 124/20/2 121/1/2
f 121/1/2 113/21/2 109/13/2
f 109/13/2 107/3/2 106/8/2
f 106/8/2 105/7/2 104/33/2
f 103/2/2 102/29/2 100/4/2
f 106/8/2 104/33/2 103/2/2
f 121/1/2 109/13/2 106/8/2
f 100/4/2 126/27/2 121/1/2
f 121/1/2 106/8/2 103/2/2
f 84/5/3 116/5/3 117/6/3
f 65/7/4 105/7/4 106/8/4
f 85/6/5 117/6/5 118/9/5
f 74/8/6 106/8/6 107/3/6
f 86/9/7 118/9/7 119/10/7
f 75/3/8 107/3/8 108/11/8
f 87/10/9 119/10/9 120/12/9
f 76/11/10 108/11/10 109/13/10
f 88/12/11 120/12/11 121/1/11
f 77/13/12 109/13/12 110/14/12
f 89/1/13 121/1/13 122/15/13
f 78/14/14 110/14/14 111/17/14
f 90/16/15 122/15/15 123/18/15
f 79/17/16 111/17/16 112/19/16
f 91/18/17 123/18/17 124/20/17
f 80/19/18 112/19/18 113/21/18
f 67/22/19 98/22/19 99/23/19
f 92/20/20 124/20/20 125/24/20
f 81/21/67 113/21/67 114/25/67
f 69/4/22 100/4/22 101/26/22
f 93/24/23 125/24/23 126/27/23
f 82/25/24 114/25/24 97/28/24
f 70/26/25 101/26/25 102/29/25
f 94/27/26 126/27/26 127/30/26
f 66/28/27 97/28/27 115/31/27
f 71/29/28 102/29/28 103/2/28
f 95/30/29 127/30/29 128/32/29
f 83/31/30 115/31/30 98/22/30
f 72/2/31 103/2/31 104/33/31
f 96/32/32 128/32/32 100/4/32
f 68/23/33 99/23/33 116/5/33
f 73/33/34 104/33/34 105/7/34
f 147/31/2 130/28/2 146/25/2
f 145/21/2 144/19/2 143/17/2
f 147/31/2 146/25/2 145/21/2
f 132/23/2 131/22/2 147/31/2
f 149/6/2 148/5/2 132/23/2
f 152/12/2 151/10/2 150/9/2
f 150/9/2 149/6/2 132/23/2
f 132/23/2 147/31/2 145/21/2
f 145/21/2 143/17/2 142/14/2
f 141/13/2 140/11/2 139/3/2
f 145/21/2 142/14/2 141/13/2
f 150/9/2 132/23/2 145/21/2
f 153/1/2 152/12/2 150/9/2
f 156/20/2 155/18/2 154/16/2
f 153/1/2 150/9/2 145/21/2
f 156/20/2 154/16/2 153/1/2
f 158/27/2 157/24/2 156/20/2
f 160/32/2 159/30/2 158/27/2
f 135/29/2 134/26/2 133/4/2
f 133/4/2 160/32/2 158/27/2
f 158/27/2 156/20/2 153/1/2
f 153/1/2 145/21/2 141/13/2
f 141/13/2 139/3/2 138/8/2
f 138/8/2 129/7/2 137/33/2
f 136/2/2 135/29/2 133/4/2
f 138/8/2 137/33/2 136/2/2
f 153/1/2 141/13/2 138/8/2
f 133/4/2 158/27/2 153/1/2
f 153/1/2 138/8/2 136/2/2
f 178/25/1 161/28/1 179/31/1
f 179/31/1 162/22/1 163/23/1
f 163/23/1 180/5/1 181/6/1
f 182/9/1 183/10/1 184/12/1
f 163/23/1 181/6/1 182/9/1
f 178/25/1 179/31/1 163/23/1
f 175/17/1 176/19/1 177/21/1
f 177/21/1 178/25/1 163/23/1
f 182/9/1 184/12/1 185/1/1
f 177/21/1 163/23/1 182/9/1
f 174/14/1 175/17/1 177/21/1
f 171/3/1 172/11/1 173/13/1
f 173/13/1 174/14/1 177/21/1
f 177/21/1 182/9/1 185/1/1
f 186/15/1 187/18/1 188/20/1
f 173/13/1 177/21/1 185/1/1
f 185/1/1 186/15/1 188/20/1
f 188/20/1 189/24/1 190/27/1
f 190/27/1 191/30/1 192/32/1
f 164/4/1 165/26/1 166/29/1
f 190/27/1 192/32/1 164/4/1
f 185/1/1 188/20/1 190/27/1
f 171/3/1 173/13/1 185/1/1
f 169/7/1 170/8/1 171/3/1
f 167/2/1 168/33/1 169/7/1
f 164/4/1 166/29/1 167/2/1
f 185/1/1 190/27/1 164/4/1
f 167/2/1 169/7/1 171/3/1
f 185/1/1 164/4/1 167/2/1
f 181/6/35 180/5/35 148/5/35
f 170/8/36 169/7/36 129/7/36
f 182/9/37 181/6/37 149/6/37
f 171/3/38 170/8/38 138/8/38
f 183/10/39 182/9/39 150/9/39
f 172/11/40 171/3/40 139/3/40
f 184/12/41 183/10/41 151/10/41
f 173/13/42 172/11/42 140/11/42
f 185/1/43 184/12/43 152/12/43
f 174/14/44 173/13/44 141/13/44
f 186/15/45 185/1/45 153/1/45
f 175/17/46 174/14/46 142/14/46
f 187/18/47 186/15/47 154/16/47
f 176/19/48 175/17/48 143/17/48
f 188/20/49 187/18/49 155/18/49
f 177/21/50 176/19/50 144/19/50
f 163/23/51 162/22/51 131/22/51
f 189/24/52 188/20/52 156/20/52
f 178/25/68 177/21/68 145/21/68
f 165/26/54 164/4/54 133/4/54
f 190/27/55 189/24/55 157/24/55
f 161/28/56 178/25/56 146/25/56
f 166/29/57 165/26/57 134/26/57
f 191/30/58 190/27/58 158/27/58
f 179/31/59 161/28/59 130/28/59
f 167/2/60 166/29/60 135/29/60
f 192/32/61 191/30/61 159/30/61
f 162/22/62 179/31/62 147/31/62
f 168/33/63 167/2/63 136/2/63
f 164/4/64 192/32/64 160/32/64
f 180/5/65 163/23/65 132/23/65
f 169/7/66 168/33/66 137/33/66
f 211/31/2 194/28/2 210/25/2
f 209/21/2 208/19/2 207/17/2
f 211/31/2 210/25/2 209/21/2
f 196/23/2 195/22/2 211/31/2
f 213/6/2 212/5/2 196/23/2
f 216/12/2 215/10/2 214/9/2
f 214/9/2 213/6/2 196/23/2
f 196/23/2 211/31/2 209/21/2
f 209/21/2 207/17/2 206/14/2
f 205/13/2 204/11/2 203/3/2
f 209/21/2 206/14/2 205/13/2
f 214/9/2 196/23/2 209/21/2
f 217/1/2 216/12/2 214/9/2
f 220/20/2 219/18/2 218/16/2
f 217/1/2 214/9/2 209/21/2
f 220/20/2 218/16/2 217/1/2
f 222/27/2 221/24/2 220/20/2
f 224/32/2 223/30/2 222/27/2
f 199/29/2 198/26/2 197/4/2
f 197/4/2 224/32/2 222/27/2
f 222/27/2 220/20/2 217/1/2
f 217/1/2 209/21/2 205/13/2
f 205/13/2 203/3/2 202/8/2
f 202/8/2 193/7/2 201/33/2
f 200/2/2 199/29/2 197/4/2
f 202/8/2 201/33/2 200/2/2
f 217/1/2 205/13/2 202/8/2
f 197/4/2 222/27/2 217/1/2
f 217/1/2 202/8/2 200/2/2
f 242/25/1 225/28/1 243/31/1
f 243/31/1 226/22/1 227/23/1
f 227/23/1 244/5/1 245/6/1
f 246/9/1 247/10/1 248/12/1
f 227/23/1 245/6/1 246/9/1
f 242/25/1 243/31/1 227/23/1
f 239/17/1 240/19/1 241/21/1
f 241/21/1 242/25/1 227/23/1
f 246/9/1 248/12/1 249/1/1
f 241/21/1 227/23/1 246/9/1
f 238/14/1 239/17/1 241/21/1
f 235/3/1 236/11/1 237/13/1
f 237/13/1 238/14/1 241/21/1
f 241/21/1 246/9/1 249/1/1
f 250/15/1 251/18/1 252/20/1
f 237/13/1 241/21/1 249/1/1
f 249/1/1 250/15/1 252/20/1
f 252/20/1 253/24/1 254/27/1
f 254/27/1 255/30/1 256/32/1
f 228/4/1 229/26/1 230/29/1
f 254/27/1 256/32/1 228/4/1
f 249/1/1 252/20/1 254/27/1
f 235/3/1 237/13/1 249/1/1
f 233/7/1 234/8/1 235/3/1
f 231/2/1 232/33/1 233/7/1
f 228/4/1 230/29/1 231/2/1
f 249/1/1 254/27/1 228/4/1
f 231/2/1 233/7/1 235/3/1
f 249/1/1 228/4/1 231/2/1
f 245/6/35 244/5/35 212/5/35
f 234/8/36 233/7/36 193/7/36
f 246/9/37 245/6/37 213/6/37
f 235/3/38 234/8/38 202/8/38
f 247/10/39 246/9/39 214/9/39
f 236/11/40 235/3/40 203/3/40
f 248/12/41 247/10/41 215/10/41
f 237/13/42 236/11/42 204/11/42
f 249/1/43 248/12/43 216/12/43
f 238/14/44 237/13/44 205/13/44
f 250/15/45 249/1/45 217/1/45
f 239/17/46 238/14/46 206/14/46
f 251/18/47 250/15/47 218/16/47
f 240/19/48 239/17/48 207/17/48
f 252/20/49 251/18/49 219/18/49
f 241/21/50 240/19/50 208/19/50
f 227/23/51 226/22/51 195/22/51
f 253/24/52 252/20/52 220/20/52
f 242/25/68 241/21/68 209/21/68
f 229/26/54 228/4/54 197/4/54
f 254/27/55 253/24/55 221/24/55
f 225/28/56 242/25/56 210/25/56
f 230/29/57 229/26/57 198/26/57
f 255/30/58 254/27/58 222/27/58
f 243/31/59 225/28/59 194/28/59
f 231/2/60 230/29/60 199/29/60
f 256/32/61 255/30/61 223/30/61
f 226/22/62 243/31/62 211/31/62
f 232/33/63 231/2/63 200/2/63
f 228/4/64 256/32/64 224/32/64
f 244/5/65 227/23/65 196/23/65
f 233/7/66 232/33/66 201/33/66
