# Blender 4.0.2
# www.blender.org
mtllib funky_cube.mtl
o Cube
v 10.179237 -9.710076 -3.950645
v 10.179241 9.710074 -3.950646
v 14.588359 -9.710077 0.076552
v 14.588363 9.710073 0.076550
v -4.562035 -9.710073 12.188638
v -4.562032 9.710078 12.188636
v -0.152913 -9.710073 16.215834
v -0.152910 9.710077 16.215834
v -1.224036 -9.710076 -5.853837
v -1.224032 9.710074 -5.853838
v 5.940494 -9.710077 0.690089
v 5.940497 9.710073 0.690088
v -11.726564 -9.710074 5.644714
v -11.726561 9.710076 5.644713
v -4.562034 -9.710074 12.188642
v -4.562031 9.710076 12.188640
v 7.486300 -9.710078 -24.244698
v 7.486303 9.710073 -24.244698
v 11.895422 -9.710078 -20.217501
v 11.895426 9.710073 -20.217501
v -16.135685 -9.710073 1.617514
v -16.135681 9.710078 1.617513
v -11.726562 -9.710073 5.644711
v -11.726559 9.710077 5.644710
vn 0.6744 -0.0000 -0.7384
vn 0.7384 -0.0000 0.6744
vn -0.6744 -0.0000 0.7384
vn -0.7384 -0.0000 -0.6744
vn -0.0000 -1.0000 -0.0000
vn -0.0000 1.0000 -0.0000
vt 0.170844 0.747352
vt 0.247446 0.996472
vt 0.170844 0.996472
vt 0.259705 0.740296
vt 0.508824 0.459900
vt 0.508824 0.740296
vt 0.003528 0.747352
vt 0.080130 0.996472
vt 0.003528 0.996472
vt 0.252648 0.459901
vt 0.003528 0.740296
vt 0.003528 0.459901
vt 0.599539 0.459901
vt 0.676140 0.740296
vt 0.599539 0.740296
vt 0.592482 0.740296
vt 0.515881 0.459901
vt 0.592482 0.459901
vt 0.716077 0.541653
vt 0.965197 0.417180
vt 0.965197 0.541653
vt 0.965197 0.203298
vt 0.716077 0.003528
vt 0.965197 0.003528
vt 0.965197 0.673182
vt 0.716077 0.548709
vt 0.965197 0.548709
vt 0.716077 0.410124
vt 0.965197 0.210354
vt 0.965197 0.410124
vt 0.338160 0.747352
vt 0.462633 0.947122
vt 0.338160 0.947122
vt 0.594162 0.747352
vt 0.469689 0.947122
vt 0.469689 0.747352
vt 0.254502 0.747352
vt 0.331104 0.996472
vt 0.254502 0.996472
vt 0.709020 0.252648
vt 0.259705 0.003528
vt 0.709020 0.003528
vt 0.087186 0.747352
vt 0.163788 0.996472
vt 0.087186 0.996472
vt 0.252648 0.003528
vt 0.003528 0.452844
vt 0.003528 0.003528
vt 0.709020 0.336306
vt 0.259705 0.259705
vt 0.709020 0.259705
vt 0.259705 0.343363
vt 0.709020 0.419964
vt 0.259705 0.419964
vt 0.247446 0.747352
vt 0.259704 0.459901
vt 0.080130 0.747352
vt 0.252648 0.740296
vt 0.676140 0.459901
vt 0.515881 0.740296
vt 0.716077 0.417180
vt 0.716077 0.203298
vt 0.716077 0.673182
vt 0.716077 0.210354
vt 0.462633 0.747352
vt 0.594162 0.947122
vt 0.331104 0.747352
vt 0.259705 0.252648
vt 0.163788 0.747352
vt 0.252648 0.452844
vt 0.259705 0.336306
vt 0.709020 0.343363
s 0
usemtl Material
f 2/1/1 3/2/1 1/3/1
f 4/4/2 7/5/2 3/6/2
f 8/7/3 5/8/3 7/9/3
f 6/10/4 1/11/4 5/12/4
f 7/13/5 1/14/5 3/15/5
f 4/16/6 6/17/6 8/18/6
f 10/19/1 11/20/1 9/21/1
f 11/22/2 16/23/2 15/24/2
f 15/25/3 14/26/3 13/27/3
f 14/28/4 9/29/4 13/30/4
f 15/31/5 9/32/5 11/33/5
f 16/34/6 10/35/6 14/36/6
f 18/37/1 19/38/1 17/39/1
f 20/40/2 23/41/2 19/42/2
f 24/43/3 21/44/3 23/45/3
f 22/46/4 17/47/4 21/48/4
f 19/49/5 21/50/5 17/51/5
f 24/52/6 18/53/6 22/54/6
f 2/1/1 4/55/1 3/2/1
f 4/4/2 8/56/2 7/5/2
f 8/7/3 6/57/3 5/8/3
f 6/10/4 2/58/4 1/11/4
f 7/13/5 5/59/5 1/14/5
f 4/16/6 2/60/6 6/17/6
f 10/19/1 12/61/1 11/20/1
f 11/22/2 12/62/2 16/23/2
f 15/25/3 16/63/3 14/26/3
f 14/28/4 10/64/4 9/29/4
f 15/31/5 13/65/5 9/32/5
f 16/34/6 12/66/6 10/35/6
f 18/37/1 20/67/1 19/38/1
f 20/40/2 24/68/2 23/41/2
f 24/43/3 22/69/3 21/44/3
f 22/46/4 18/70/4 17/47/4
f 19/49/5 23/71/5 21/50/5
f 24/52/6 20/72/6 18/53/6