# Blender 4.0.2
# www.blender.org
mtllib tankBody.mtl
o Cube
v 1.800000 -0.700000 -1.200000
v 1.800000 -0.700000 1.200000
v -1.800000 -0.700000 -1.200000
v -1.800000 -0.700000 1.200000
v 1.800000 0.368059 -1.200000
v 1.811611 0.377236 1.211964
v -1.800000 0.341145 1.200000
v -1.800000 0.700000 0.584819
v 0.957003 0.731936 0.595058
v 1.811611 0.377236 1.211964
v -1.800000 0.700000 -0.592487
v -1.800000 0.345617 -1.200000
v 1.800000 0.368059 -1.200000
v 0.954190 0.723425 -0.600038
vn 0.3854 0.9227 -0.0061
vn -0.0000 -1.0000 -0.0000
vn -0.0016 -0.0056 1.0000
vn 1.0000 -0.0054 -0.0024
vn -0.0100 0.9999 -0.0036
vn -0.0110 0.8620 0.5068
vn -0.0000 -0.0000 -1.0000
vn -0.0068 0.8600 -0.5103
vn -1.0000 -0.0000 -0.0000
vt 0.565725 0.500000
vt 0.684275 0.563283
vt 0.684275 0.685919
vt 0.565725 0.750000
vt 0.125000 0.500000
vt 0.375000 0.500000
vt 0.375000 0.750000
vt 0.125000 0.750000
vt 0.565725 0.750000
vt 0.560919 1.000000
vt 0.375000 1.000000
vt 0.684275 0.563283
vt 0.875000 0.563283
vt 0.875000 0.685919
vt 0.684275 0.685919
vt 0.625000 0.809275
vt 0.625000 1.000000
vt 0.375000 0.250000
vt 0.561717 0.250000
vt 0.625000 0.250000
vt 0.625000 0.440725
vt 0.375000 0.000000
vt 0.560919 0.000000
vt 0.625000 0.064081
vt 0.625000 0.186717
s 0
usemtl Material
f 13/1/1 14/2/1 9/3/1 10/4/1 6/4/1 5/1/1
f 3/5/2 1/6/2 2/7/2 4/8/2
f 2/7/3 6/9/3 10/9/3 7/10/3 4/11/3
f 1/6/4 5/1/4 6/4/4 2/7/4
f 14/12/5 11/13/5 8/14/5 9/15/5
f 7/10/6 10/9/6 9/16/6 8/17/6
f 3/18/7 12/19/7 13/1/7 5/1/7 1/6/7
f 11/20/8 14/21/8 13/1/8 12/19/8
f 4/22/9 7/23/9 8/24/9 11/25/9 12/19/9 3/18/9
