# Blender 4.0.2
# www.blender.org
mtllib tankHead.mtl
o Head
v -0.629239 0.585071 0.434758
v -0.629239 1.434756 0.434758
v -0.629239 0.585071 -0.434758
v -0.629239 1.434756 -0.434758
v 0.629239 0.585071 0.434758
v 0.629239 1.434756 0.434758
v 0.629239 0.585071 -0.434758
v 0.629239 1.434756 -0.434758
vn -1.0000 -0.0000 -0.0000
vn -0.0000 -0.0000 -1.0000
vn 1.0000 -0.0000 -0.0000
vn -0.0000 -0.0000 1.0000
vn -0.0000 -1.0000 -0.0000
vn -0.0000 1.0000 -0.0000
vt 0.625000 0.000000
vt 0.375000 0.250000
vt 0.375000 0.000000
vt 0.625000 0.250000
vt 0.375000 0.500000
vt 0.625000 0.500000
vt 0.375000 0.750000
vt 0.625000 0.750000
vt 0.375000 1.000000
vt 0.125000 0.750000
vt 0.125000 0.500000
vt 0.875000 0.500000
vt 0.625000 1.000000
vt 0.875000 0.750000
s 0
f 2/1/1 3/2/1 1/3/1
f 4/4/2 7/5/2 3/2/2
f 8/6/3 5/7/3 7/5/3
f 6/8/4 1/9/4 5/7/4
f 7/5/5 1/10/5 3/11/5
f 4/12/6 6/8/6 8/6/6
f 2/1/1 4/4/1 3/2/1
f 4/4/2 8/6/2 7/5/2
f 8/6/3 6/8/3 5/7/3
f 6/8/4 2/13/4 1/9/4
f 7/5/5 5/7/5 1/10/5
f 4/12/6 2/14/6 6/8/6
o Canon
v 0.629240 1.020780 -0.226776
v 2.024790 1.020780 -0.226776
v 0.629240 0.972325 -0.222418
v 2.024790 0.972325 -0.222418
v 0.629240 0.925731 -0.209514
v 2.024790 0.925731 -0.209514
v 0.629240 0.882791 -0.188557
v 2.024790 0.882791 -0.188557
v 0.629240 0.845153 -0.160355
v 2.024790 0.845153 -0.160355
v 0.629240 0.814265 -0.125990
v 2.024790 0.814265 -0.125990
v 0.629240 0.791313 -0.086783
v 2.024790 0.791313 -0.086783
v 0.629240 0.777179 -0.044242
v 2.024790 0.777179 -0.044242
v 0.629240 0.772406 0.000000
v 2.024790 0.772406 0.000000
v 0.629240 0.777179 0.044242
v 2.024790 0.777179 0.044242
v 0.629240 0.791313 0.086783
v 2.024790 0.791313 0.086783
v 0.629240 0.814265 0.125990
v 2.024790 0.814265 0.125990
v 0.629240 0.845153 0.160355
v 2.024790 0.845153 0.160355
v 0.629240 0.882791 0.188557
v 2.024790 0.882791 0.188557
v 0.629240 0.925731 0.209514
v 2.024790 0.925731 0.209514
v 0.629240 0.972325 0.222418
v 2.024790 0.972325 0.222418
v 0.629240 1.020780 0.226776
v 2.024790 1.020780 0.226776
v 0.629240 1.069235 0.222418
v 2.024790 1.069235 0.222418
v 0.629240 1.115828 0.209514
v 2.024790 1.115828 0.209514
v 0.629240 1.158769 0.188557
v 2.024790 1.158769 0.188557
v 0.629240 1.196406 0.160355
v 2.024790 1.196406 0.160355
v 0.629240 1.227295 0.125990
v 2.024790 1.227295 0.125990
v 0.629240 1.250247 0.086783
v 2.024790 1.250247 0.086783
v 0.629240 1.264381 0.044242
v 2.024790 1.264381 0.044242
v 0.629240 1.269153 0.000000
v 2.024790 1.269153 0.000000
v 0.629240 1.264381 -0.044242
v 2.024790 1.264381 -0.044242
v 0.629240 1.250247 -0.086783
v 2.024790 1.250247 -0.086783
v 0.629240 1.227295 -0.125990
v 2.024790 1.227295 -0.125990
v 0.629240 1.196406 -0.160355
v 2.024790 1.196406 -0.160355
v 0.629240 1.158769 -0.188557
v 2.024790 1.158769 -0.188557
v 0.629240 1.115828 -0.209514
v 2.024790 1.115828 -0.209514
v 0.629240 1.069235 -0.222418
v 2.024790 1.069235 -0.222418
vn -0.0000 -0.0896 -0.9960
vn -0.0000 -0.2669 -0.9637
vn -0.0000 -0.4386 -0.8987
vn -0.0000 -0.5996 -0.8003
vn -0.0000 -0.7437 -0.6685
vn -0.0000 -0.8630 -0.5052
vn -0.0000 -0.9490 -0.3153
vn -0.0000 -0.9942 -0.1072
vn -0.0000 -0.9942 0.1072
vn -0.0000 -0.9490 0.3153
vn -0.0000 -0.8630 0.5052
vn -0.0000 -0.7437 0.6685
vn -0.0000 -0.5996 0.8003
vn -0.0000 -0.4386 0.8987
vn -0.0000 -0.2669 0.9637
vn -0.0000 -0.0896 0.9960
vn -0.0000 0.0896 0.9960
vn -0.0000 0.2669 0.9637
vn -0.0000 0.4386 0.8987
vn -0.0000 0.5996 0.8003
vn -0.0000 0.7437 0.6685
vn -0.0000 0.8630 0.5052
vn -0.0000 0.9490 0.3153
vn -0.0000 0.9942 0.1072
vn -0.0000 0.9942 -0.1072
vn -0.0000 0.9490 -0.3153
vn -0.0000 0.8630 -0.5052
vn -0.0000 0.7437 -0.6685
vn -0.0000 0.5996 -0.8003
vn -0.0000 0.4386 -0.8987
vn 1.0000 -0.0000 -0.0000
vn -0.0000 0.2669 -0.9637
vn -0.0000 0.0896 -0.9960
vn -1.0000 -0.0000 -0.0000
vt 1.000000 1.000000
vt 0.968750 0.500000
vt 1.000000 0.500000
vt 0.968750 1.000000
vt 0.937500 0.500000
vt 0.937500 1.000000
vt 0.906250 0.500000
vt 0.906250 1.000000
vt 0.875000 0.500000
vt 0.875000 1.000000
vt 0.843750 0.500000
vt 0.843750 1.000000
vt 0.812500 0.500000
vt 0.812500 1.000000
vt 0.781250 0.500000
vt 0.781250 1.000000
vt 0.750000 0.500000
vt 0.750000 1.000000
vt 0.718750 0.500000
vt 0.718750 1.000000
vt 0.687500 0.500000
vt 0.687500 1.000000
vt 0.656250 0.500000
vt 0.656250 1.000000
vt 0.625000 0.500000
vt 0.625000 1.000000
vt 0.593750 0.500000
vt 0.593750 1.000000
vt 0.562500 0.500000
vt 0.562500 1.000000
vt 0.531250 0.500000
vt 0.531250 1.000000
vt 0.500000 0.500000
vt 0.500000 1.000000
vt 0.468750 0.500000
vt 0.468750 1.000000
vt 0.437500 0.500000
vt 0.437500 1.000000
vt 0.406250 0.500000
vt 0.406250 1.000000
vt 0.375000 0.500000
vt 0.375000 1.000000
vt 0.343750 0.500000
vt 0.343750 1.000000
vt 0.312500 0.500000
vt 0.312500 1.000000
vt 0.281250 0.500000
vt 0.281250 1.000000
vt 0.250000 0.500000
vt 0.250000 1.000000
vt 0.218750 0.500000
vt 0.218750 1.000000
vt 0.187500 0.500000
vt 0.187500 1.000000
vt 0.156250 0.500000
vt 0.156250 1.000000
vt 0.125000 0.500000
vt 0.125000 1.000000
vt 0.093750 0.500000
vt 0.093750 1.000000
vt 0.062500 0.500000
vt 0.158156 0.028269
vt 0.471731 0.158156
vt 0.341844 0.471731
vt 0.062500 1.000000
vt 0.031250 0.500000
vt 0.031250 1.000000
vt 0.000000 0.500000
vt 0.796822 0.014612
vt 0.514612 0.203178
vt 0.703178 0.485388
vt 0.296822 0.485388
vt 0.250000 0.490000
vt 0.203178 0.485388
vt 0.158156 0.471731
vt 0.116663 0.449553
vt 0.080294 0.419706
vt 0.050447 0.383337
vt 0.028269 0.341844
vt 0.014612 0.296822
vt 0.010000 0.250000
vt 0.014612 0.203178
vt 0.028269 0.158156
vt 0.050447 0.116663
vt 0.080294 0.080294
vt 0.116663 0.050447
vt 0.203178 0.014612
vt 0.250000 0.010000
vt 0.296822 0.014612
vt 0.341844 0.028269
vt 0.383337 0.050447
vt 0.419706 0.080294
vt 0.449553 0.116663
vt 0.485388 0.203178
vt 0.490000 0.250000
vt 0.485388 0.296822
vt 0.471731 0.341844
vt 0.449553 0.383337
vt 0.419706 0.419706
vt 0.383337 0.449553
vt 0.000000 1.000000
vt 0.750000 0.490000
vt 0.796822 0.485388
vt 0.841844 0.471731
vt 0.883337 0.449553
vt 0.919706 0.419706
vt 0.949553 0.383337
vt 0.971731 0.341844
vt 0.985388 0.296822
vt 0.990000 0.250000
vt 0.985388 0.203178
vt 0.971731 0.158156
vt 0.949553 0.116663
vt 0.919706 0.080294
vt 0.883337 0.050447
vt 0.841844 0.028269
vt 0.750000 0.010000
vt 0.703178 0.014612
vt 0.658156 0.028269
vt 0.616663 0.050447
vt 0.580294 0.080294
vt 0.550447 0.116663
vt 0.528269 0.158156
vt 0.510000 0.250000
vt 0.514612 0.296822
vt 0.528269 0.341844
vt 0.550447 0.383337
vt 0.580294 0.419706
vt 0.616663 0.449553
vt 0.658156 0.471731
s 0
f 10/15/7 11/16/7 9/17/7
f 12/18/8 13/19/8 11/16/8
f 14/20/9 15/21/9 13/19/9
f 16/22/10 17/23/10 15/21/10
f 18/24/11 19/25/11 17/23/11
f 20/26/12 21/27/12 19/25/12
f 22/28/13 23/29/13 21/27/13
f 24/30/14 25/31/14 23/29/14
f 26/32/15 27/33/15 25/31/15
f 28/34/16 29/35/16 27/33/16
f 30/36/17 31/37/17 29/35/17
f 32/38/18 33/39/18 31/37/18
f 34/40/19 35/41/19 33/39/19
f 36/42/20 37/43/20 35/41/20
f 38/44/21 39/45/21 37/43/21
f 40/46/22 41/47/22 39/45/22
f 42/48/23 43/49/23 41/47/23
f 44/50/24 45/51/24 43/49/24
f 46/52/25 47/53/25 45/51/25
f 48/54/26 49/55/26 47/53/26
f 50/56/27 51/57/27 49/55/27
f 52/58/28 53/59/28 51/57/28
f 54/60/29 55/61/29 53/59/29
f 56/62/30 57/63/30 55/61/30
f 58/64/31 59/65/31 57/63/31
f 60/66/32 61/67/32 59/65/32
f 62/68/33 63/69/33 61/67/33
f 64/70/34 65/71/34 63/69/34
f 66/72/35 67/73/35 65/71/35
f 68/74/36 69/75/36 67/73/36
f 46/76/37 30/77/37 14/78/37
f 70/79/38 71/80/38 69/75/38
f 72/81/39 9/82/39 71/80/39
f 39/83/40 55/84/40 71/85/40
f 10/15/7 12/18/7 11/16/7
f 12/18/8 14/20/8 13/19/8
f 14/20/9 16/22/9 15/21/9
f 16/22/10 18/24/10 17/23/10
f 18/24/11 20/26/11 19/25/11
f 20/26/12 22/28/12 21/27/12
f 22/28/13 24/30/13 23/29/13
f 24/30/14 26/32/14 25/31/14
f 26/32/15 28/34/15 27/33/15
f 28/34/16 30/36/16 29/35/16
f 30/36/17 32/38/17 31/37/17
f 32/38/18 34/40/18 33/39/18
f 34/40/19 36/42/19 35/41/19
f 36/42/20 38/44/20 37/43/20
f 38/44/21 40/46/21 39/45/21
f 40/46/22 42/48/22 41/47/22
f 42/48/23 44/50/23 43/49/23
f 44/50/24 46/52/24 45/51/24
f 46/52/25 48/54/25 47/53/25
f 48/54/26 50/56/26 49/55/26
f 50/56/27 52/58/27 51/57/27
f 52/58/28 54/60/28 53/59/28
f 54/60/29 56/62/29 55/61/29
f 56/62/30 58/64/30 57/63/30
f 58/64/31 60/66/31 59/65/31
f 60/66/32 62/68/32 61/67/32
f 62/68/33 64/70/33 63/69/33
f 64/70/34 66/72/34 65/71/34
f 66/72/35 68/74/35 67/73/35
f 68/74/36 70/79/36 69/75/36
f 14/78/37 12/86/37 10/87/37
f 10/87/37 72/88/37 70/89/37
f 70/89/37 68/90/37 66/91/37
f 66/91/37 64/92/37 62/93/37
f 62/93/37 60/94/37 58/95/37
f 58/95/37 56/96/37 54/97/37
f 54/97/37 52/98/37 50/99/37
f 50/99/37 48/100/37 46/76/37
f 46/76/37 44/101/37 42/102/37
f 42/102/37 40/103/37 38/104/37
f 38/104/37 36/105/37 34/106/37
f 34/106/37 32/107/37 30/77/37
f 30/77/37 28/108/37 26/109/37
f 26/109/37 24/110/37 22/111/37
f 22/111/37 20/112/37 18/113/37
f 18/113/37 16/114/37 14/78/37
f 14/78/37 10/87/37 70/89/37
f 70/89/37 66/91/37 62/93/37
f 62/93/37 58/95/37 54/97/37
f 54/97/37 50/99/37 46/76/37
f 46/76/37 42/102/37 38/104/37
f 38/104/37 34/106/37 30/77/37
f 30/77/37 26/109/37 22/111/37
f 22/111/37 18/113/37 14/78/37
f 14/78/37 70/89/37 62/93/37
f 62/93/37 54/97/37 46/76/37
f 46/76/37 38/104/37 30/77/37
f 30/77/37 22/111/37 14/78/37
f 14/78/37 62/93/37 46/76/37
f 70/79/38 72/81/38 71/80/38
f 72/81/39 10/115/39 9/82/39
f 71/85/40 9/116/40 11/117/40
f 11/117/40 13/118/40 15/119/40
f 15/119/40 17/120/40 19/121/40
f 19/121/40 21/122/40 23/123/40
f 23/123/40 25/124/40 27/125/40
f 27/125/40 29/126/40 31/127/40
f 31/127/40 33/128/40 35/129/40
f 35/129/40 37/130/40 39/83/40
f 39/83/40 41/131/40 43/132/40
f 43/132/40 45/133/40 47/134/40
f 47/134/40 49/135/40 51/136/40
f 51/136/40 53/137/40 55/84/40
f 55/84/40 57/138/40 59/139/40
f 59/139/40 61/140/40 63/141/40
f 63/141/40 65/142/40 67/143/40
f 67/143/40 69/144/40 71/85/40
f 71/85/40 11/117/40 15/119/40
f 15/119/40 19/121/40 23/123/40
f 23/123/40 27/125/40 31/127/40
f 31/127/40 35/129/40 39/83/40
f 39/83/40 43/132/40 47/134/40
f 47/134/40 51/136/40 55/84/40
f 55/84/40 59/139/40 63/141/40
f 63/141/40 67/143/40 71/85/40
f 71/85/40 15/119/40 23/123/40
f 23/123/40 31/127/40 39/83/40
f 39/83/40 47/134/40 55/84/40
f 55/84/40 63/141/40 71/85/40
f 71/85/40 23/123/40 39/83/40
