# Blender 4.0.2
# www.blender.org
mtllib tank.mtl
o Body
v 1.837047 0.608157 -1.153958
v 1.837047 -0.608157 -1.153958
v 1.837047 0.608157 1.153958
v 1.837047 -0.608157 1.153958
v -1.837047 0.608157 -1.153958
v -1.837047 -0.608157 -1.153958
v -1.837047 0.608157 1.153958
v -1.837047 -0.608157 1.153958
vn -0.0000 1.0000 -0.0000
vn -0.0000 -0.0000 1.0000
vn -1.0000 -0.0000 -0.0000
vn -0.0000 -1.0000 -0.0000
vn 1.0000 -0.0000 -0.0000
vn -0.0000 -0.0000 -1.0000
vt 0.625000 0.500000
vt 0.875000 0.500000
vt 0.875000 0.750000
vt 0.625000 0.750000
vt 0.375000 0.750000
vt 0.625000 1.000000
vt 0.375000 1.000000
vt 0.375000 0.000000
vt 0.625000 0.000000
vt 0.625000 0.250000
vt 0.375000 0.250000
vt 0.125000 0.500000
vt 0.375000 0.500000
vt 0.125000 0.750000
s 0
usemtl Material
f 1/1/1 5/2/1 7/3/1 3/4/1
f 4/5/2 3/4/2 7/6/2 8/7/2
f 8/8/3 7/9/3 5/10/3 6/11/3
f 6/12/4 2/13/4 4/5/4 8/14/4
f 2/13/5 1/1/5 3/4/5 4/5/5
f 6/11/6 5/10/6 1/1/6 2/13/6
o Head
v -0.625084 0.585071 0.436215
v -0.625084 1.434756 0.436215
v -0.625084 0.585071 -0.433301
v -0.625084 1.434756 -0.433301
v 0.633394 0.585071 0.436215
v 0.633394 1.434756 0.436215
v 0.633394 0.585071 -0.433301
v 0.633394 1.434756 -0.433301
vn -1.0000 -0.0000 -0.0000
vn -0.0000 -0.0000 -1.0000
vn 1.0000 -0.0000 -0.0000
vn -0.0000 -0.0000 1.0000
vn -0.0000 -1.0000 -0.0000
vn -0.0000 1.0000 -0.0000
vt 0.375000 0.000000
vt 0.625000 0.000000
vt 0.625000 0.250000
vt 0.375000 0.250000
vt 0.625000 0.500000
vt 0.375000 0.500000
vt 0.625000 0.750000
vt 0.375000 0.750000
vt 0.625000 1.000000
vt 0.375000 1.000000
vt 0.125000 0.500000
vt 0.125000 0.750000
vt 0.875000 0.500000
vt 0.875000 0.750000
s 0
f 9/15/7 10/16/7 12/17/7 11/18/7
f 11/18/8 12/17/8 16/19/8 15/20/8
f 15/20/9 16/19/9 14/21/9 13/22/9
f 13/22/10 14/21/10 10/23/10 9/24/10
f 11/25/11 15/20/11 13/22/11 9/26/11
f 16/19/12 12/27/12 10/28/12 14/21/12
o Canon
v 0.556981 1.007452 -0.227534
v 1.952531 1.007452 -0.227534
v 0.556981 0.958997 -0.223177
v 1.952531 0.958997 -0.223177
v 0.556981 0.912404 -0.210272
v 1.952531 0.912404 -0.210272
v 0.556981 0.869463 -0.189316
v 1.952531 0.869463 -0.189316
v 0.556981 0.831826 -0.161113
v 1.952531 0.831825 -0.161113
v 0.556981 0.800937 -0.126748
v 1.952531 0.800937 -0.126748
v 0.556981 0.777985 -0.087542
v 1.952531 0.777985 -0.087542
v 0.556981 0.763851 -0.045000
v 1.952531 0.763851 -0.045000
v 0.556981 0.759079 -0.000759
v 1.952531 0.759079 -0.000759
v 0.556981 0.763851 0.043483
v 1.952531 0.763851 0.043483
v 0.556981 0.777985 0.086025
v 1.952531 0.777985 0.086025
v 0.556981 0.800937 0.125231
v 1.952531 0.800937 0.125231
v 0.556981 0.831826 0.159596
v 1.952531 0.831825 0.159596
v 0.556981 0.869463 0.187799
v 1.952531 0.869463 0.187799
v 0.556981 0.912404 0.208755
v 1.952531 0.912404 0.208755
v 0.556981 0.958997 0.221660
v 1.952531 0.958997 0.221660
v 0.556981 1.007452 0.226017
v 1.952531 1.007452 0.226017
v 0.556981 1.055907 0.221660
v 1.952531 1.055907 0.221660
v 0.556981 1.102500 0.208755
v 1.952531 1.102500 0.208755
v 0.556981 1.145441 0.187799
v 1.952531 1.145441 0.187799
v 0.556981 1.183079 0.159596
v 1.952531 1.183079 0.159596
v 0.556981 1.213967 0.125231
v 1.952531 1.213967 0.125231
v 0.556981 1.236919 0.086025
v 1.952531 1.236919 0.086025
v 0.556981 1.251053 0.043483
v 1.952531 1.251053 0.043483
v 0.556981 1.255825 -0.000759
v 1.952531 1.255825 -0.000759
v 0.556981 1.251053 -0.045000
v 1.952531 1.251053 -0.045000
v 0.556981 1.236919 -0.087542
v 1.952531 1.236919 -0.087542
v 0.556981 1.213967 -0.126748
v 1.952531 1.213967 -0.126748
v 0.556981 1.183079 -0.161113
v 1.952531 1.183079 -0.161113
v 0.556981 1.145441 -0.189316
v 1.952531 1.145441 -0.189316
v 0.556981 1.102500 -0.210272
v 1.952531 1.102500 -0.210272
v 0.556981 1.055907 -0.223177
v 1.952531 1.055907 -0.223177
vn -0.0000 -0.0896 -0.9960
vn -0.0000 -0.2669 -0.9637
vn -0.0000 -0.4386 -0.8987
vn -0.0000 -0.5996 -0.8003
vn -0.0000 -0.7437 -0.6685
vn -0.0000 -0.8630 -0.5052
vn -0.0000 -0.9490 -0.3153
vn -0.0000 -0.9942 -0.1072
vn -0.0000 -0.9942 0.1072
vn -0.0000 -0.9490 0.3153
vn -0.0000 -0.8630 0.5052
vn -0.0000 -0.7437 0.6685
vn -0.0000 -0.5996 0.8003
vn -0.0000 -0.4386 0.8987
vn -0.0000 -0.2669 0.9637
vn -0.0000 -0.0896 0.9960
vn -0.0000 0.0896 0.9960
vn -0.0000 0.2669 0.9637
vn -0.0000 0.4386 0.8987
vn -0.0000 0.5996 0.8003
vn -0.0000 0.7437 0.6685
vn -0.0000 0.8630 0.5052
vn -0.0000 0.9490 0.3153
vn -0.0000 0.9942 0.1072
vn -0.0000 0.9942 -0.1072
vn -0.0000 0.9490 -0.3153
vn -0.0000 0.8630 -0.5052
vn -0.0000 0.7437 -0.6685
vn -0.0000 0.5996 -0.8003
vn -0.0000 0.4386 -0.8987
vn 1.0000 -0.0000 -0.0000
vn -0.0000 0.2669 -0.9637
vn -0.0000 0.0896 -0.9960
vn -1.0000 -0.0000 -0.0000
vt 1.000000 0.500000
vt 1.000000 1.000000
vt 0.968750 1.000000
vt 0.968750 0.500000
vt 0.937500 1.000000
vt 0.937500 0.500000
vt 0.906250 1.000000
vt 0.906250 0.500000
vt 0.875000 1.000000
vt 0.875000 0.500000
vt 0.843750 1.000000
vt 0.843750 0.500000
vt 0.812500 1.000000
vt 0.812500 0.500000
vt 0.781250 1.000000
vt 0.781250 0.500000
vt 0.750000 1.000000
vt 0.750000 0.500000
vt 0.718750 1.000000
vt 0.718750 0.500000
vt 0.687500 1.000000
vt 0.687500 0.500000
vt 0.656250 1.000000
vt 0.656250 0.500000
vt 0.625000 1.000000
vt 0.625000 0.500000
vt 0.593750 1.000000
vt 0.593750 0.500000
vt 0.562500 1.000000
vt 0.562500 0.500000
vt 0.531250 1.000000
vt 0.531250 0.500000
vt 0.500000 1.000000
vt 0.500000 0.500000
vt 0.468750 1.000000
vt 0.468750 0.500000
vt 0.437500 1.000000
vt 0.437500 0.500000
vt 0.406250 1.000000
vt 0.406250 0.500000
vt 0.375000 1.000000
vt 0.375000 0.500000
vt 0.343750 1.000000
vt 0.343750 0.500000
vt 0.312500 1.000000
vt 0.312500 0.500000
vt 0.281250 1.000000
vt 0.281250 0.500000
vt 0.250000 1.000000
vt 0.250000 0.500000
vt 0.218750 1.000000
vt 0.218750 0.500000
vt 0.187500 1.000000
vt 0.187500 0.500000
vt 0.156250 1.000000
vt 0.156250 0.500000
vt 0.125000 1.000000
vt 0.125000 0.500000
vt 0.093750 1.000000
vt 0.093750 0.500000
vt 0.062500 1.000000
vt 0.062500 0.500000
vt 0.296822 0.485388
vt 0.250000 0.490000
vt 0.203178 0.485388
vt 0.158156 0.471731
vt 0.116663 0.449553
vt 0.080294 0.419706
vt 0.050447 0.383337
vt 0.028269 0.341844
vt 0.014612 0.296822
vt 0.010000 0.250000
vt 0.014612 0.203178
vt 0.028269 0.158156
vt 0.050447 0.116663
vt 0.080294 0.080294
vt 0.116663 0.050447
vt 0.158156 0.028269
vt 0.203178 0.014612
vt 0.250000 0.010000
vt 0.296822 0.014612
vt 0.341844 0.028269
vt 0.383337 0.050447
vt 0.419706 0.080294
vt 0.449553 0.116663
vt 0.471731 0.158156
vt 0.485388 0.203178
vt 0.490000 0.250000
vt 0.485388 0.296822
vt 0.471731 0.341844
vt 0.449553 0.383337
vt 0.419706 0.419706
vt 0.383337 0.449553
vt 0.341844 0.471731
vt 0.031250 1.000000
vt 0.031250 0.500000
vt 0.000000 1.000000
vt 0.000000 0.500000
vt 0.750000 0.490000
vt 0.796822 0.485388
vt 0.841844 0.471731
vt 0.883337 0.449553
vt 0.919706 0.419706
vt 0.949553 0.383337
vt 0.971731 0.341844
vt 0.985388 0.296822
vt 0.990000 0.250000
vt 0.985388 0.203178
vt 0.971731 0.158156
vt 0.949553 0.116663
vt 0.919706 0.080294
vt 0.883337 0.050447
vt 0.841844 0.028269
vt 0.796822 0.014612
vt 0.750000 0.010000
vt 0.703178 0.014612
vt 0.658156 0.028269
vt 0.616663 0.050447
vt 0.580294 0.080294
vt 0.550447 0.116663
vt 0.528269 0.158156
vt 0.514612 0.203178
vt 0.510000 0.250000
vt 0.514612 0.296822
vt 0.528269 0.341844
vt 0.550447 0.383337
vt 0.580294 0.419706
vt 0.616663 0.449553
vt 0.658156 0.471731
vt 0.703178 0.485388
s 0
f 17/29/13 18/30/13 20/31/13 19/32/13
f 19/32/14 20/31/14 22/33/14 21/34/14
f 21/34/15 22/33/15 24/35/15 23/36/15
f 23/36/16 24/35/16 26/37/16 25/38/16
f 25/38/17 26/37/17 28/39/17 27/40/17
f 27/40/18 28/39/18 30/41/18 29/42/18
f 29/42/19 30/41/19 32/43/19 31/44/19
f 31/44/20 32/43/20 34/45/20 33/46/20
f 33/46/21 34/45/21 36/47/21 35/48/21
f 35/48/22 36/47/22 38/49/22 37/50/22
f 37/50/23 38/49/23 40/51/23 39/52/23
f 39/52/24 40/51/24 42/53/24 41/54/24
f 41/54/25 42/53/25 44/55/25 43/56/25
f 43/56/26 44/55/26 46/57/26 45/58/26
f 45/58/27 46/57/27 48/59/27 47/60/27
f 47/60/28 48/59/28 50/61/28 49/62/28
f 49/62/29 50/61/29 52/63/29 51/64/29
f 51/64/30 52/63/30 54/65/30 53/66/30
f 53/66/31 54/65/31 56/67/31 55/68/31
f 55/68/32 56/67/32 58/69/32 57/70/32
f 57/70/33 58/69/33 60/71/33 59/72/33
f 59/72/34 60/71/34 62/73/34 61/74/34
f 61/74/35 62/73/35 64/75/35 63/76/35
f 63/76/36 64/75/36 66/77/36 65/78/36
f 65/78/37 66/77/37 68/79/37 67/80/37
f 67/80/38 68/79/38 70/81/38 69/82/38
f 69/82/39 70/81/39 72/83/39 71/84/39
f 71/84/40 72/83/40 74/85/40 73/86/40
f 73/86/41 74/85/41 76/87/41 75/88/41
f 75/88/42 76/87/42 78/89/42 77/90/42
f 20/91/43 18/92/43 80/93/43 78/94/43 76/95/43 74/96/43 72/97/43 70/98/43 68/99/43 66/100/43 64/101/43 62/102/43 60/103/43 58/104/43 56/105/43 54/106/43 52/107/43 50/108/43 48/109/43 46/110/43 44/111/43 42/112/43 40/113/43 38/114/43 36/115/43 34/116/43 32/117/43 30/118/43 28/119/43 26/120/43 24/121/43 22/122/43
f 77/90/44 78/89/44 80/123/44 79/124/44
f 79/124/45 80/123/45 18/125/45 17/126/45
f 17/127/46 19/128/46 21/129/46 23/130/46 25/131/46 27/132/46 29/133/46 31/134/46 33/135/46 35/136/46 37/137/46 39/138/46 41/139/46 43/140/46 45/141/46 47/142/46 49/143/46 51/144/46 53/145/46 55/146/46 57/147/46 59/148/46 61/149/46 63/150/46 65/151/46 67/152/46 69/153/46 71/154/46 73/155/46 75/156/46 77/157/46 79/158/46
o Tread_Right
v -1.837493 -0.308644 1.153810
v -1.837493 -0.308644 1.492310
v -1.831476 -0.249655 1.153810
v -1.831476 -0.249655 1.492310
v -1.813655 -0.192932 1.153810
v -1.813655 -0.192932 1.492310
v -1.784715 -0.140657 1.153810
v -1.784715 -0.140657 1.492310
v -1.745769 -0.094837 1.153810
v -1.745769 -0.094837 1.492310
v -1.698313 -0.057234 1.153810
v -1.698313 -0.057234 1.492310
v -1.644171 -0.029292 1.153810
v -1.644171 -0.029292 1.492310
v -1.585423 -0.012086 1.153810
v -1.585423 -0.012086 1.492310
v 1.337432 -0.006276 1.153810
v 1.337432 -0.006276 1.492310
v 1.582925 -0.012086 1.153810
v 1.582925 -0.012086 1.492310
v 1.641673 -0.029292 1.153810
v 1.641673 -0.029292 1.492310
v 1.695815 -0.057234 1.153810
v 1.695815 -0.057234 1.492310
v 1.743271 -0.094837 1.153810
v 1.743271 -0.094837 1.492310
v 1.782218 -0.140657 1.153810
v 1.782218 -0.140657 1.492310
v 1.811157 -0.192932 1.153810
v 1.811157 -0.192932 1.492310
v 1.828978 -0.249655 1.153810
v 1.828978 -0.249655 1.492310
v 1.834995 -0.308644 1.153810
v 1.834995 -0.308644 1.492310
v 1.828978 -0.367633 1.153810
v 1.828978 -0.367633 1.492310
v 1.811157 -0.424355 1.153810
v 1.811157 -0.424355 1.492310
v 1.782218 -0.476630 1.153810
v 1.782218 -0.476630 1.492310
v 1.743271 -0.522450 1.153810
v 1.743271 -0.522450 1.492310
v 1.695815 -0.560053 1.153810
v 1.695815 -0.560053 1.492310
v 1.641673 -0.587995 1.153810
v 1.641673 -0.587995 1.492310
v 1.582925 -0.605201 1.153810
v 1.582925 -0.605201 1.492310
v 1.337432 -0.611011 1.153810
v 1.337432 -0.611011 1.492310
v -1.585423 -0.605201 1.153810
v -1.585423 -0.605201 1.492310
v -1.644171 -0.587995 1.153810
v -1.644171 -0.587995 1.492310
v -1.698313 -0.560053 1.153810
v -1.698313 -0.560053 1.492310
v -1.745769 -0.522450 1.153810
v -1.745769 -0.522450 1.492310
v -1.784715 -0.476630 1.153810
v -1.784715 -0.476630 1.492310
v -1.813655 -0.424355 1.153810
v -1.813655 -0.424355 1.492310
v -1.831476 -0.367633 1.153810
v -1.831476 -0.367633 1.492310
vn -0.9948 0.1015 -0.0000
vn -0.9540 0.2997 -0.0000
vn -0.8749 0.4843 -0.0000
vn -0.7619 0.6476 -0.0000
vn -0.6210 0.7838 -0.0000
vn -0.4586 0.8886 -0.0000
vn -0.2811 0.9597 -0.0000
vn -0.0020 1.0000 -0.0000
vn 0.0237 0.9997 -0.0000
vn 0.2811 0.9597 -0.0000
vn 0.4586 0.8886 -0.0000
vn 0.6210 0.7838 -0.0000
vn 0.7619 0.6476 -0.0000
vn 0.8749 0.4843 -0.0000
vn 0.9540 0.2997 -0.0000
vn 0.9948 0.1015 -0.0000
vn 0.9948 -0.1015 -0.0000
vn 0.9540 -0.2997 -0.0000
vn 0.8749 -0.4843 -0.0000
vn 0.7619 -0.6476 -0.0000
vn 0.6210 -0.7838 -0.0000
vn 0.4586 -0.8886 -0.0000
vn 0.2811 -0.9597 -0.0000
vn 0.0237 -0.9997 -0.0000
vn -0.0020 -1.0000 -0.0000
vn -0.2811 -0.9597 -0.0000
vn -0.4586 -0.8886 -0.0000
vn -0.6210 -0.7838 -0.0000
vn -0.7619 -0.6476 -0.0000
vn -0.8749 -0.4843 -0.0000
vn -0.0000 -0.0000 1.0000
vn -0.9540 -0.2997 -0.0000
vn -0.9948 -0.1015 -0.0000
vn -0.0000 -0.0000 -1.0000
vt 1.000000 0.500000
vt 1.000000 1.000000
vt 0.968750 1.000000
vt 0.968750 0.500000
vt 0.937500 1.000000
vt 0.937500 0.500000
vt 0.906250 1.000000
vt 0.906250 0.500000
vt 0.875000 1.000000
vt 0.875000 0.500000
vt 0.843750 1.000000
vt 0.843750 0.500000
vt 0.812500 1.000000
vt 0.812500 0.500000
vt 0.781250 1.000000
vt 0.781250 0.500000
vt 0.750000 1.000000
vt 0.750000 0.500000
vt 0.718750 1.000000
vt 0.718750 0.500000
vt 0.687500 1.000000
vt 0.687500 0.500000
vt 0.656250 1.000000
vt 0.656250 0.500000
vt 0.625000 1.000000
vt 0.625000 0.500000
vt 0.593750 1.000000
vt 0.593750 0.500000
vt 0.562500 1.000000
vt 0.562500 0.500000
vt 0.531250 1.000000
vt 0.531250 0.500000
vt 0.500000 1.000000
vt 0.500000 0.500000
vt 0.468750 1.000000
vt 0.468750 0.500000
vt 0.437500 1.000000
vt 0.437500 0.500000
vt 0.406250 1.000000
vt 0.406250 0.500000
vt 0.375000 1.000000
vt 0.375000 0.500000
vt 0.343750 1.000000
vt 0.343750 0.500000
vt 0.312500 1.000000
vt 0.312500 0.500000
vt 0.281250 1.000000
vt 0.281250 0.500000
vt 0.250000 1.000000
vt 0.250000 0.500000
vt 0.218750 1.000000
vt 0.218750 0.500000
vt 0.187500 1.000000
vt 0.187500 0.500000
vt 0.156250 1.000000
vt 0.156250 0.500000
vt 0.125000 1.000000
vt 0.125000 0.500000
vt 0.093750 1.000000
vt 0.093750 0.500000
vt 0.062500 1.000000
vt 0.062500 0.500000
vt 0.296822 0.485388
vt 0.250000 0.490000
vt 0.203178 0.485388
vt 0.158156 0.471731
vt 0.116663 0.449553
vt 0.080294 0.419706
vt 0.050447 0.383337
vt 0.028269 0.341844
vt 0.014612 0.296822
vt 0.010000 0.250000
vt 0.014612 0.203178
vt 0.028269 0.158156
vt 0.050447 0.116663
vt 0.080294 0.080294
vt 0.116663 0.050447
vt 0.158156 0.028269
vt 0.203178 0.014612
vt 0.250000 0.010000
vt 0.296822 0.014612
vt 0.341844 0.028269
vt 0.383337 0.050447
vt 0.419706 0.080294
vt 0.449553 0.116663
vt 0.471731 0.158156
vt 0.485388 0.203178
vt 0.490000 0.250000
vt 0.485388 0.296822
vt 0.471731 0.341844
vt 0.449553 0.383337
vt 0.419706 0.419706
vt 0.383337 0.449553
vt 0.341844 0.471731
vt 0.031250 1.000000
vt 0.031250 0.500000
vt 0.000000 1.000000
vt 0.000000 0.500000
vt 0.750000 0.490000
vt 0.796822 0.485388
vt 0.841844 0.471731
vt 0.883337 0.449553
vt 0.919706 0.419706
vt 0.949553 0.383337
vt 0.971731 0.341844
vt 0.985388 0.296822
vt 0.990000 0.250000
vt 0.985388 0.203178
vt 0.971731 0.158156
vt 0.949553 0.116663
vt 0.919706 0.080294
vt 0.883337 0.050447
vt 0.841844 0.028269
vt 0.796822 0.014612
vt 0.750000 0.010000
vt 0.703178 0.014612
vt 0.658156 0.028269
vt 0.616663 0.050447
vt 0.580294 0.080294
vt 0.550447 0.116663
vt 0.528269 0.158156
vt 0.514612 0.203178
vt 0.510000 0.250000
vt 0.514612 0.296822
vt 0.528269 0.341844
vt 0.550447 0.383337
vt 0.580294 0.419706
vt 0.616663 0.449553
vt 0.658156 0.471731
vt 0.703178 0.485388
s 0
f 81/159/47 82/160/47 84/161/47 83/162/47
f 83/162/48 84/161/48 86/163/48 85/164/48
f 85/164/49 86/163/49 88/165/49 87/166/49
f 87/166/50 88/165/50 90/167/50 89/168/50
f 89/168/51 90/167/51 92/169/51 91/170/51
f 91/170/52 92/169/52 94/171/52 93/172/52
f 93/172/53 94/171/53 96/173/53 95/174/53
f 95/174/54 96/173/54 98/175/54 97/176/54
f 97/176/55 98/175/55 100/177/55 99/178/55
f 99/178/56 100/177/56 102/179/56 101/180/56
f 101/180/57 102/179/57 104/181/57 103/182/57
f 103/182/58 104/181/58 106/183/58 105/184/58
f 105/184/59 106/183/59 108/185/59 107/186/59
f 107/186/60 108/185/60 110/187/60 109/188/60
f 109/188/61 110/187/61 112/189/61 111/190/61
f 111/190/62 112/189/62 114/191/62 113/192/62
f 113/192/63 114/191/63 116/193/63 115/194/63
f 115/194/64 116/193/64 118/195/64 117/196/64
f 117/196/65 118/195/65 120/197/65 119/198/65
f 119/198/66 120/197/66 122/199/66 121/200/66
f 121/200/67 122/199/67 124/201/67 123/202/67
f 123/202/68 124/201/68 126/203/68 125/204/68
f 125/204/69 126/203/69 128/205/69 127/206/69
f 127/206/70 128/205/70 130/207/70 129/208/70
f 129/208/71 130/207/71 132/209/71 131/210/71
f 131/210/72 132/209/72 134/211/72 133/212/72
f 133/212/73 134/211/73 136/213/73 135/214/73
f 135/214/74 136/213/74 138/215/74 137/216/74
f 137/216/75 138/215/75 140/217/75 139/218/75
f 139/218/76 140/217/76 142/219/76 141/220/76
f 84/221/77 82/222/77 144/223/77 142/224/77 140/225/77 138/226/77 136/227/77 134/228/77 132/229/77 130/230/77 128/231/77 126/232/77 124/233/77 122/234/77 120/235/77 118/236/77 116/237/77 114/238/77 112/239/77 110/240/77 108/241/77 106/242/77 104/243/77 102/244/77 100/245/77 98/246/77 96/247/77 94/248/77 92/249/77 90/250/77 88/251/77 86/252/77
f 141/220/78 142/219/78 144/253/78 143/254/78
f 143/254/79 144/253/79 82/255/79 81/256/79
f 81/257/80 83/258/80 85/259/80 87/260/80 89/261/80 91/262/80 93/263/80 95/264/80 97/265/80 99/266/80 101/267/80 103/268/80 105/269/80 107/270/80 109/271/80 111/272/80 113/273/80 115/274/80 117/275/80 119/276/80 121/277/80 123/278/80 125/279/80 127/280/80 129/281/80 131/282/80 133/283/80 135/284/80 137/285/80 139/286/80 141/287/80 143/288/80
o Tread_Left
v -1.839911 -0.310002 -1.491128
v -1.839911 -0.310002 -1.152683
v -1.833894 -0.251013 -1.491128
v -1.833894 -0.251013 -1.152683
v -1.816073 -0.194290 -1.491128
v -1.816073 -0.194290 -1.152683
v -1.787133 -0.142015 -1.491128
v -1.787133 -0.142015 -1.152683
v -1.748187 -0.096195 -1.491128
v -1.748187 -0.096195 -1.152683
v -1.700731 -0.058592 -1.491128
v -1.700731 -0.058592 -1.152683
v -1.646589 -0.030650 -1.491128
v -1.646589 -0.030650 -1.152683
v -1.587841 -0.013444 -1.491128
v -1.587841 -0.013444 -1.152683
v 1.338839 -0.007634 -1.491128
v 1.338839 -0.007634 -1.152683
v 1.580761 -0.013444 -1.491128
v 1.580761 -0.013444 -1.152683
v 1.639508 -0.030650 -1.491128
v 1.639508 -0.030650 -1.152683
v 1.693651 -0.058592 -1.491128
v 1.693651 -0.058592 -1.152683
v 1.741107 -0.096195 -1.491128
v 1.741107 -0.096195 -1.152683
v 1.780053 -0.142015 -1.491128
v 1.780053 -0.142015 -1.152683
v 1.808993 -0.194290 -1.491128
v 1.808993 -0.194290 -1.152683
v 1.826814 -0.251013 -1.491128
v 1.826814 -0.251013 -1.152683
v 1.832831 -0.310002 -1.491128
v 1.832831 -0.310002 -1.152683
v 1.826814 -0.368991 -1.491128
v 1.826814 -0.368991 -1.152683
v 1.808993 -0.425713 -1.491128
v 1.808993 -0.425713 -1.152683
v 1.780053 -0.477988 -1.491128
v 1.780053 -0.477988 -1.152683
v 1.741107 -0.523808 -1.491128
v 1.741107 -0.523808 -1.152683
v 1.693651 -0.561411 -1.491128
v 1.693651 -0.561411 -1.152683
v 1.639508 -0.589353 -1.491128
v 1.639508 -0.589353 -1.152683
v 1.580761 -0.606559 -1.491128
v 1.580761 -0.606559 -1.152683
v 1.338839 -0.612369 -1.491128
v 1.338839 -0.612369 -1.152683
v -1.587841 -0.606559 -1.491128
v -1.587841 -0.606559 -1.152683
v -1.646589 -0.589353 -1.491128
v -1.646589 -0.589353 -1.152683
v -1.700731 -0.561411 -1.491128
v -1.700731 -0.561411 -1.152683
v -1.748187 -0.523808 -1.491128
v -1.748187 -0.523808 -1.152683
v -1.787133 -0.477988 -1.491128
v -1.787133 -0.477988 -1.152683
v -1.816073 -0.425713 -1.491128
v -1.816073 -0.425713 -1.152683
v -1.833894 -0.368991 -1.491128
v -1.833894 -0.368991 -1.152683
vn -0.9948 0.1015 -0.0000
vn -0.9540 0.2997 -0.0000
vn -0.8749 0.4843 -0.0000
vn -0.7619 0.6476 -0.0000
vn -0.6210 0.7838 -0.0000
vn -0.4586 0.8886 -0.0000
vn -0.2811 0.9597 -0.0000
vn -0.0020 1.0000 -0.0000
vn 0.0240 0.9997 -0.0000
vn 0.2811 0.9597 -0.0000
vn 0.4586 0.8886 -0.0000
vn 0.6210 0.7838 -0.0000
vn 0.7619 0.6476 -0.0000
vn 0.8749 0.4843 -0.0000
vn 0.9540 0.2997 -0.0000
vn 0.9948 0.1015 -0.0000
vn 0.9948 -0.1015 -0.0000
vn 0.9540 -0.2997 -0.0000
vn 0.8749 -0.4843 -0.0000
vn 0.7619 -0.6476 -0.0000
vn 0.6210 -0.7838 -0.0000
vn 0.4586 -0.8886 -0.0000
vn 0.2811 -0.9597 -0.0000
vn 0.0240 -0.9997 -0.0000
vn -0.0020 -1.0000 -0.0000
vn -0.2811 -0.9597 -0.0000
vn -0.4586 -0.8886 -0.0000
vn -0.6210 -0.7838 -0.0000
vn -0.7619 -0.6476 -0.0000
vn -0.8749 -0.4843 -0.0000
vn -0.0000 -0.0000 1.0000
vn -0.9540 -0.2997 -0.0000
vn -0.9948 -0.1015 -0.0000
vn -0.0000 -0.0000 -1.0000
vt 1.000000 0.500000
vt 1.000000 1.000000
vt 0.968750 1.000000
vt 0.968750 0.500000
vt 0.937500 1.000000
vt 0.937500 0.500000
vt 0.906250 1.000000
vt 0.906250 0.500000
vt 0.875000 1.000000
vt 0.875000 0.500000
vt 0.843750 1.000000
vt 0.843750 0.500000
vt 0.812500 1.000000
vt 0.812500 0.500000
vt 0.781250 1.000000
vt 0.781250 0.500000
vt 0.750000 1.000000
vt 0.750000 0.500000
vt 0.718750 1.000000
vt 0.718750 0.500000
vt 0.687500 1.000000
vt 0.687500 0.500000
vt 0.656250 1.000000
vt 0.656250 0.500000
vt 0.625000 1.000000
vt 0.625000 0.500000
vt 0.593750 1.000000
vt 0.593750 0.500000
vt 0.562500 1.000000
vt 0.562500 0.500000
vt 0.531250 1.000000
vt 0.531250 0.500000
vt 0.500000 1.000000
vt 0.500000 0.500000
vt 0.468750 1.000000
vt 0.468750 0.500000
vt 0.437500 1.000000
vt 0.437500 0.500000
vt 0.406250 1.000000
vt 0.406250 0.500000
vt 0.375000 1.000000
vt 0.375000 0.500000
vt 0.343750 1.000000
vt 0.343750 0.500000
vt 0.312500 1.000000
vt 0.312500 0.500000
vt 0.281250 1.000000
vt 0.281250 0.500000
vt 0.250000 1.000000
vt 0.250000 0.500000
vt 0.218750 1.000000
vt 0.218750 0.500000
vt 0.187500 1.000000
vt 0.187500 0.500000
vt 0.156250 1.000000
vt 0.156250 0.500000
vt 0.125000 1.000000
vt 0.125000 0.500000
vt 0.093750 1.000000
vt 0.093750 0.500000
vt 0.062500 1.000000
vt 0.062500 0.500000
vt 0.296822 0.485388
vt 0.250000 0.490000
vt 0.203178 0.485388
vt 0.158156 0.471731
vt 0.116663 0.449553
vt 0.080294 0.419706
vt 0.050447 0.383337
vt 0.028269 0.341844
vt 0.014612 0.296822
vt 0.010000 0.250000
vt 0.014612 0.203178
vt 0.028269 0.158156
vt 0.050447 0.116663
vt 0.080294 0.080294
vt 0.116663 0.050447
vt 0.158156 0.028269
vt 0.203178 0.014612
vt 0.250000 0.010000
vt 0.296822 0.014612
vt 0.341844 0.028269
vt 0.383337 0.050447
vt 0.419706 0.080294
vt 0.449553 0.116663
vt 0.471731 0.158156
vt 0.485388 0.203178
vt 0.490000 0.250000
vt 0.485388 0.296822
vt 0.471731 0.341844
vt 0.449553 0.383337
vt 0.419706 0.419706
vt 0.383337 0.449553
vt 0.341844 0.471731
vt 0.031250 1.000000
vt 0.031250 0.500000
vt 0.000000 1.000000
vt 0.000000 0.500000
vt 0.750000 0.490000
vt 0.796822 0.485388
vt 0.841844 0.471731
vt 0.883337 0.449553
vt 0.919706 0.419706
vt 0.949553 0.383337
vt 0.971731 0.341844
vt 0.985388 0.296822
vt 0.990000 0.250000
vt 0.985388 0.203178
vt 0.971731 0.158156
vt 0.949553 0.116663
vt 0.919706 0.080294
vt 0.883337 0.050447
vt 0.841844 0.028269
vt 0.796822 0.014612
vt 0.750000 0.010000
vt 0.703178 0.014612
vt 0.658156 0.028269
vt 0.616663 0.050447
vt 0.580294 0.080294
vt 0.550447 0.116663
vt 0.528269 0.158156
vt 0.514612 0.203178
vt 0.510000 0.250000
vt 0.514612 0.296822
vt 0.528269 0.341844
vt 0.550447 0.383337
vt 0.580294 0.419706
vt 0.616663 0.449553
vt 0.658156 0.471731
vt 0.703178 0.485388
s 0
f 145/289/81 146/290/81 148/291/81 147/292/81
f 147/292/82 148/291/82 150/293/82 149/294/82
f 149/294/83 150/293/83 152/295/83 151/296/83
f 151/296/84 152/295/84 154/297/84 153/298/84
f 153/298/85 154/297/85 156/299/85 155/300/85
f 155/300/86 156/299/86 158/301/86 157/302/86
f 157/302/87 158/301/87 160/303/87 159/304/87
f 159/304/88 160/303/88 162/305/88 161/306/88
f 161/306/89 162/305/89 164/307/89 163/308/89
f 163/308/90 164/307/90 166/309/90 165/310/90
f 165/310/91 166/309/91 168/311/91 167/312/91
f 167/312/92 168/311/92 170/313/92 169/314/92
f 169/314/93 170/313/93 172/315/93 171/316/93
f 171/316/94 172/315/94 174/317/94 173/318/94
f 173/318/95 174/317/95 176/319/95 175/320/95
f 175/320/96 176/319/96 178/321/96 177/322/96
f 177/322/97 178/321/97 180/323/97 179/324/97
f 179/324/98 180/323/98 182/325/98 181/326/98
f 181/326/99 182/325/99 184/327/99 183/328/99
f 183/328/100 184/327/100 186/329/100 185/330/100
f 185/330/101 186/329/101 188/331/101 187/332/101
f 187/332/102 188/331/102 190/333/102 189/334/102
f 189/334/103 190/333/103 192/335/103 191/336/103
f 191/336/104 192/335/104 194/337/104 193/338/104
f 193/338/105 194/337/105 196/339/105 195/340/105
f 195/340/106 196/339/106 198/341/106 197/342/106
f 197/342/107 198/341/107 200/343/107 199/344/107
f 199/344/108 200/343/108 202/345/108 201/346/108
f 201/346/109 202/345/109 204/347/109 203/348/109
f 203/348/110 204/347/110 206/349/110 205/350/110
f 148/351/111 146/352/111 208/353/111 206/354/111 204/355/111 202/356/111 200/357/111 198/358/111 196/359/111 194/360/111 192/361/111 190/362/111 188/363/111 186/364/111 184/365/111 182/366/111 180/367/111 178/368/111 176/369/111 174/370/111 172/371/111 170/372/111 168/373/111 166/374/111 164/375/111 162/376/111 160/377/111 158/378/111 156/379/111 154/380/111 152/381/111 150/382/111
f 205/350/112 206/349/112 208/383/112 207/384/112
f 207/384/113 208/383/113 146/385/113 145/386/113
f 145/387/114 147/388/114 149/389/114 151/390/114 153/391/114 155/392/114 157/393/114 159/394/114 161/395/114 163/396/114 165/397/114 167/398/114 169/399/114 171/400/114 173/401/114 175/402/114 177/403/114 179/404/114 181/405/114 183/406/114 185/407/114 187/408/114 189/409/114 191/410/114 193/411/114 195/412/114 197/413/114 199/414/114 201/415/114 203/416/114 205/417/114 207/418/114
