# Blender 4.1.0
# www.blender.org
mtllib trainFence.mtl
o Cube
v -1.940401 -7.644588 12.673424
v -1.940401 3.992906 12.673424
v -12.046717 -7.644588 4.297888
v -12.046717 3.992906 4.297888
v 11.587240 -7.644588 -3.649665
v 11.587240 3.992906 -3.649665
v 1.480924 -7.644588 -12.025200
v 1.480924 3.992906 -12.025200
vn -0.6381 -0.0000 0.7700
vn -0.7700 -0.0000 -0.6381
vn 0.6381 -0.0000 -0.7700
vn 0.7700 -0.0000 0.6381
vn -0.0000 -1.0000 -0.0000
vn -0.0000 1.0000 -0.0000
vt 0.625000 0.000000
vt 0.375000 0.250000
vt 0.375000 0.000000
vt 0.625000 0.250000
vt 0.375000 0.500000
vt 0.625000 0.500000
vt 0.375000 0.750000
vt 0.625000 0.750000
vt 0.375000 1.000000
vt 0.125000 0.750000
vt 0.125000 0.500000
vt 0.875000 0.500000
vt 0.625000 1.000000
vt 0.875000 0.750000
s 0
f 2/1/1 3/2/1 1/3/1
f 4/4/2 7/5/2 3/2/2
f 8/6/3 5/7/3 7/5/3
f 6/8/4 1/9/4 5/7/4
f 7/5/5 1/10/5 3/11/5
f 4/12/6 6/8/6 8/6/6
f 2/1/1 4/4/1 3/2/1
f 4/4/2 8/6/2 7/5/2
f 8/6/3 6/8/3 5/7/3
f 6/8/4 2/13/4 1/9/4
f 7/5/5 5/7/5 1/10/5
f 4/12/6 2/14/6 6/8/6
